<svg width="77" height="68" viewBox="0 0 77 68" fill="none" xmlns="http://www.w3.org/2000/svg">
<rect width="77" height="68" fill="#FF0006"/>
<ellipse cx="38.5" cy="34" rx="27.5" ry="27" fill="#030303" fill-opacity="0.14"/>
<path d="M49.6786 31.6786H41.7857C41.5293 31.6786 41.3214 31.4707 41.3214 31.2143V23.3214C41.3214 22.0394 40.282 21 39 21C37.718 21 36.6786 22.0394 36.6786 23.3214V31.2143C36.6786 31.4707 36.4707 31.6786 36.2143 31.6786H28.3214C27.0394 31.6786 26 32.718 26 34C26 35.282 27.0394 36.3214 28.3214 36.3214H36.2143C36.4707 36.3214 36.6786 36.5293 36.6786 36.7857V44.6786C36.6786 45.9606 37.718 47 39 47C40.282 47 41.3214 45.9606 41.3214 44.6786V36.7857C41.3214 36.5293 41.5293 36.3214 41.7857 36.3214H49.6786C50.9606 36.3214 52 35.282 52 34C52 32.718 50.9606 31.6786 49.6786 31.6786Z" fill="white"/>
</svg>
