<svg width="20" height="21" viewBox="0 0 20 21" fill="none" xmlns="http://www.w3.org/2000/svg">
<path d="M14 19.3703C14 18.5029 13.3284 17.7997 12.5 17.7997H7.5C6.67157 17.7997 6 18.5029 6 19.3703C6 20.2377 6.67157 20.9409 7.5 20.9409H12.5C13.3284 20.9409 14 20.2377 14 19.3703Z" fill="#FF4444"/>
<path d="M17 11.5175C17 10.3609 16.1046 9.42339 15 9.42339H5C3.89543 9.42339 3 10.3609 3 11.5175C3 12.674 3.89543 13.6116 5 13.6116H15C16.1046 13.6116 17 12.674 17 11.5175Z" fill="#FF4444"/>
<path d="M0 2.61761C0 4.06327 1.11929 5.23522 2.5 5.23522H17.5C18.8807 5.23522 20 4.06327 20 2.61761C20 1.17194 18.8807 0 17.5 0H2.5C1.11929 0 0 1.17194 0 2.61761Z" fill="#FF4444"/>
</svg>
