<svg width="155" height="13" viewBox="0 0 155 13" fill="none" xmlns="http://www.w3.org/2000/svg">
<path d="M8.24219 12L7.67969 9.85938H3.96875L3.39062 12H0L3.72656 0.53125H7.84375L11.6172 12H8.24219ZM7.03906 7.32812L6.54688 5.45312C6.43229 5.03646 6.29167 4.4974 6.125 3.83594C5.96354 3.17448 5.85677 2.70052 5.80469 2.41406C5.75781 2.67969 5.66406 3.11719 5.52344 3.72656C5.38802 4.33594 5.08333 5.53646 4.60938 7.32812H7.03906ZM23.7344 12H19.6875L15.5156 3.95312H15.4453C15.5443 5.21875 15.5938 6.1849 15.5938 6.85156V12H12.8594V0.578125H16.8906L21.0469 8.51562H21.0938C21.0208 7.36458 20.9844 6.4401 20.9844 5.74219V0.578125H23.7344V12ZM26.2031 12V0.578125H29.3047V12H26.2031ZM36.7578 12L34.4219 3.77344H34.3516C34.4609 5.17448 34.5156 6.26302 34.5156 7.03906V12H31.7812V0.578125H35.8906L38.2734 8.6875H38.3359L40.6719 0.578125H44.7891V12H41.9531V6.99219C41.9531 6.73177 41.9557 6.44271 41.9609 6.125C41.9714 5.80729 42.0078 5.02865 42.0703 3.78906H42L39.6953 12H36.7578ZM54.2578 12L53.6953 9.85938H49.9844L49.4062 12H46.0156L49.7422 0.53125H53.8594L57.6328 12H54.2578ZM53.0547 7.32812L52.5625 5.45312C52.4479 5.03646 52.3073 4.4974 52.1406 3.83594C51.9792 3.17448 51.8724 2.70052 51.8203 2.41406C51.7734 2.67969 51.6797 3.11719 51.5391 3.72656C51.4036 4.33594 51.099 5.53646 50.625 7.32812H53.0547ZM58.875 12V0.578125H61.9609V9.50781H66.3594V12H58.875ZM77.3828 12H74.2969V3.10156H71.5078V0.578125H80.1641V3.10156H77.3828V12ZM84.8828 7.84375V12H81.7969V0.578125H85.5391C88.6432 0.578125 90.1953 1.70312 90.1953 3.95312C90.1953 5.27604 89.5495 6.29948 88.2578 7.02344L91.5859 12H88.0859L85.6641 7.84375H84.8828ZM84.8828 5.52344H85.4609C86.5391 5.52344 87.0781 5.04688 87.0781 4.09375C87.0781 3.30729 86.5495 2.91406 85.4922 2.91406H84.8828V5.52344ZM99.6328 12L99.0703 9.85938H95.3594L94.7812 12H91.3906L95.1172 0.53125H99.2344L103.008 12H99.6328ZM98.4297 7.32812L97.9375 5.45312C97.8229 5.03646 97.6823 4.4974 97.5156 3.83594C97.3542 3.17448 97.2474 2.70052 97.1953 2.41406C97.1484 2.67969 97.0547 3.11719 96.9141 3.72656C96.7786 4.33594 96.474 5.53646 96 7.32812H98.4297ZM109.336 2.94531C108.602 2.94531 108.029 3.2474 107.617 3.85156C107.206 4.45052 107 5.27865 107 6.33594C107 8.53385 107.836 9.63281 109.508 9.63281C110.013 9.63281 110.503 9.5625 110.977 9.42188C111.451 9.28125 111.927 9.11198 112.406 8.91406V11.5234C111.453 11.9453 110.375 12.1562 109.172 12.1562C107.448 12.1562 106.125 11.6562 105.203 10.6562C104.286 9.65625 103.828 8.21094 103.828 6.32031C103.828 5.13802 104.049 4.09896 104.492 3.20312C104.94 2.30729 105.581 1.61979 106.414 1.14062C107.253 0.65625 108.237 0.414062 109.367 0.414062C110.602 0.414062 111.781 0.682292 112.906 1.21875L111.961 3.64844C111.539 3.45052 111.117 3.28385 110.695 3.14844C110.273 3.01302 109.82 2.94531 109.336 2.94531ZM124.398 12H120.914L118.656 7.63281L117.742 8.17969V12H114.641V0.578125H117.742V5.53906C117.898 5.23177 118.214 4.74479 118.688 4.07812L121.086 0.578125H124.461L120.859 5.69531L124.398 12ZM125.641 12V0.578125H128.742V12H125.641ZM142.094 12H138.047L133.875 3.95312H133.805C133.904 5.21875 133.953 6.1849 133.953 6.85156V12H131.219V0.578125H135.25L139.406 8.51562H139.453C139.38 7.36458 139.344 6.4401 139.344 5.74219V0.578125H142.094V12ZM149.148 5.3125H154.078V11.4688C152.74 11.9271 151.268 12.1562 149.664 12.1562C147.904 12.1562 146.542 11.6458 145.578 10.625C144.62 9.60417 144.141 8.14844 144.141 6.25781C144.141 4.41406 144.667 2.97917 145.719 1.95312C146.771 0.927083 148.245 0.414062 150.141 0.414062C150.859 0.414062 151.536 0.481771 152.172 0.617188C152.812 0.752604 153.37 0.924479 153.844 1.13281L152.867 3.55469C152.044 3.14844 151.141 2.94531 150.156 2.94531C149.255 2.94531 148.557 3.23958 148.062 3.82812C147.573 4.41146 147.328 5.2474 147.328 6.33594C147.328 7.40365 147.549 8.21875 147.992 8.78125C148.44 9.33854 149.083 9.61719 149.922 9.61719C150.38 9.61719 150.802 9.57292 151.188 9.48438V7.69531H149.148V5.3125Z" fill="#FF4444"/>
</svg>
