<svg width="16" height="16" viewBox="0 0 16 16" fill="none" xmlns="http://www.w3.org/2000/svg">
<rect width="16" height="16" rx="2" fill="#FF4444"/>
<path d="M8.00001 3.55556C7.06315 3.55551 6.16413 3.92523 5.49834 4.58435C4.83256 5.24348 4.45383 6.13874 4.44446 7.07556C4.44446 9.51111 7.57779 12.2222 7.71112 12.3378C7.79163 12.4066 7.89408 12.4445 8.00001 12.4445C8.10595 12.4445 8.2084 12.4066 8.2889 12.3378C8.44446 12.2222 11.5556 9.51111 11.5556 7.07556C11.5462 6.13874 11.1675 5.24348 10.5017 4.58435C9.8359 3.92523 8.93688 3.55551 8.00001 3.55556ZM8.00001 11.4C7.25779 10.6933 5.33335 8.73334 5.33335 7.07556C5.33335 6.36831 5.6143 5.69004 6.1144 5.18994C6.61449 4.68984 7.29277 4.40889 8.00001 4.40889C8.70726 4.40889 9.38553 4.68984 9.88563 5.18994C10.3857 5.69004 10.6667 6.36831 10.6667 7.07556C10.6667 8.72 8.74224 10.6933 8.00001 11.4Z" fill="white"/>
<path d="M8.00001 5.33334C7.69235 5.33334 7.3916 5.42458 7.13579 5.5955C6.87998 5.76643 6.6806 6.00937 6.56287 6.29361C6.44513 6.57785 6.41433 6.89062 6.47435 7.19237C6.53437 7.49412 6.68252 7.77129 6.90007 7.98884C7.11762 8.20639 7.39479 8.35454 7.69654 8.41457C7.99829 8.47459 8.31106 8.44378 8.5953 8.32605C8.87954 8.20831 9.12249 8.00893 9.29341 7.75312C9.46434 7.49731 9.55557 7.19656 9.55557 6.8889C9.55557 6.47634 9.39168 6.08068 9.09996 5.78896C8.80824 5.49723 8.41257 5.33334 8.00001 5.33334ZM8.00001 7.55557C7.86816 7.55557 7.73927 7.51647 7.62963 7.44321C7.52 7.36996 7.43455 7.26584 7.38409 7.14402C7.33364 7.0222 7.32043 6.88816 7.34616 6.75884C7.37188 6.62952 7.43537 6.51073 7.52861 6.41749C7.62185 6.32426 7.74063 6.26077 7.86995 6.23504C7.99927 6.20932 8.13332 6.22252 8.25514 6.27298C8.37695 6.32344 8.48107 6.40889 8.55433 6.51852C8.62758 6.62815 8.66668 6.75704 8.66668 6.8889C8.66668 7.06571 8.59644 7.23528 8.47142 7.3603C8.3464 7.48533 8.17683 7.55557 8.00001 7.55557Z" fill="white"/>
</svg>
