<svg width="24" height="26" viewBox="0 0 24 26" fill="none" xmlns="http://www.w3.org/2000/svg">
<path d="M22.6502 17.0125L20.4002 14.75V9.17502C20.4302 7.1048 19.71 5.09366 18.3729 3.51294C17.0357 1.93222 15.1718 0.888689 13.1252 0.57502C11.9375 0.418604 10.73 0.517289 9.58347 0.86449C8.4369 1.21169 7.37755 1.79942 6.47612 2.58847C5.57469 3.37752 4.8519 4.34974 4.35597 5.44026C3.86005 6.53079 3.6024 7.71453 3.60021 8.91252V14.75L1.35021 17.0125C1.0676 17.2999 0.875943 17.6641 0.799214 18.0598C0.722485 18.4554 0.764084 18.8649 0.91881 19.2371C1.07354 19.6092 1.33453 19.9275 1.66915 20.1521C2.00378 20.3768 2.39719 20.4978 2.80021 20.5H7.00021V20.925C7.0586 22.194 7.61766 23.3881 8.55487 24.2457C9.49209 25.1032 10.731 25.5543 12.0002 25.5C13.2694 25.5543 14.5083 25.1032 15.4456 24.2457C16.3828 23.3881 16.9418 22.194 17.0002 20.925V20.5H21.2002C21.6032 20.4978 21.9967 20.3768 22.3313 20.1521C22.6659 19.9275 22.9269 19.6092 23.0816 19.2371C23.2363 18.8649 23.2779 18.4554 23.2012 18.0598C23.1245 17.6641 22.9328 17.2999 22.6502 17.0125ZM14.5002 20.925C14.4309 21.5263 14.1323 22.0776 13.6666 22.4641C13.2008 22.8507 12.6039 23.0426 12.0002 23C11.3965 23.0426 10.7996 22.8507 10.3339 22.4641C9.86816 22.0776 9.56954 21.5263 9.50021 20.925V20.5H14.5002V20.925ZM3.88771 18L5.36271 16.525C5.59667 16.2924 5.78229 16.0159 5.90887 15.7112C6.03544 15.4066 6.10048 15.0799 6.10021 14.75V8.91252C6.1009 8.06927 6.28194 7.23593 6.63121 6.46841C6.98047 5.70089 7.48987 5.01696 8.12521 4.46252C8.75199 3.89462 9.49468 3.46971 10.3019 3.21719C11.1091 2.96466 11.9615 2.89057 12.8002 3.00002C14.2458 3.23474 15.558 3.98378 16.4951 5.10925C17.4322 6.23471 17.9312 7.66082 17.9002 9.12502V14.75C17.8983 15.079 17.9614 15.4052 18.0858 15.7098C18.2102 16.0144 18.3935 16.2914 18.6252 16.525L20.1127 18H3.88771Z" fill="#373643"/>
</svg>
