<svg width="6" height="7" viewBox="0 0 6 7" fill="none" xmlns="http://www.w3.org/2000/svg">
<path d="M0.562795 6.605C0.467023 6.605 0.375173 6.56696 0.307451 6.49924C0.23973 6.43151 0.201684 6.33966 0.201684 6.24389L0.147518 0.950003C0.143169 0.842516 0.160114 0.73523 0.197378 0.634316C0.234641 0.533401 0.291488 0.44085 0.364649 0.361984C0.437809 0.283118 0.52584 0.219494 0.623678 0.174772C0.721516 0.13005 0.827229 0.105111 0.93474 0.101391L4.39779 0.0833359C4.50545 0.0852161 4.61167 0.108286 4.71041 0.151228C4.80914 0.194169 4.89845 0.256141 4.97323 0.333604C5.04801 0.411067 5.1068 0.502503 5.14624 0.60269C5.18567 0.702876 5.20499 0.809851 5.20307 0.917503L5.25363 6.21139C5.25425 6.27467 5.23823 6.337 5.20717 6.39214C5.17612 6.44728 5.13112 6.49329 5.07668 6.52556C5.02179 6.55725 4.95952 6.57394 4.89613 6.57394C4.83274 6.57394 4.77047 6.55725 4.71557 6.52556L2.65724 5.38445L0.746962 6.55084C0.690395 6.58243 0.627462 6.60094 0.562795 6.605ZM2.6428 4.60084C2.70554 4.60095 2.76739 4.61579 2.82335 4.64417L4.52418 5.58667L4.48085 0.91028C4.48085 0.838058 4.43391 0.787503 4.40502 0.791114L0.938351 0.823614C0.909462 0.823614 0.86974 0.870558 0.86974 0.94278L0.913073 5.60111L2.45863 4.65139C2.51476 4.61925 2.57812 4.60186 2.6428 4.60084Z" fill="#373643"/>
</svg>
