<svg width="32" height="32" viewBox="0 0 32 32" fill="none" xmlns="http://www.w3.org/2000/svg">
<circle cx="16" cy="16" r="15.5" fill="white" stroke="#9AA1A9"/>
<g clip-path="url(#clip0)">
<path d="M12.1785 15.1873C11.6922 14.9724 11.1263 15.0502 10.716 15.3881C10.5653 15.5123 10.4475 15.6093 10.4423 15.6136C8.95385 16.8679 7.40209 18.3597 7.9554 18.7225C8.95127 19.3755 10.8429 19.4228 11.441 19.2649C11.8052 19.1687 12.1456 18.7555 12.4337 18.2614L12.9241 16.9737C13.1903 16.2747 12.8626 15.4897 12.1785 15.1873Z" fill="#58565D"/>
<path d="M12.3358 15.5466C12.1732 15.4397 11.9601 15.4496 11.8084 15.5715C11.4098 15.8918 10.9706 16.2543 10.5448 16.625C9.70206 17.3586 9.23514 17.8437 8.97793 18.148C8.93684 18.1966 8.95919 18.2716 9.02008 18.2899C9.54095 18.4465 10.1585 18.5056 10.6189 18.5056C10.9037 18.5056 11.1028 18.4842 11.2003 18.4637C11.2112 18.4614 11.2209 18.457 11.2301 18.4509C11.3064 18.4001 11.5925 18.1637 11.9993 17.2828C12.0458 17.1821 12.3267 16.5157 12.5032 16.0959C12.5872 15.8963 12.5168 15.6654 12.3358 15.5466Z" fill="#4E4D54"/>
<path d="M20.9845 15.1873C21.4707 14.9724 22.0367 15.0502 22.4469 15.3881C22.5976 15.5123 22.7154 15.6093 22.7206 15.6136C24.209 16.8679 25.7608 18.3597 25.2075 18.7225C24.2117 19.3755 22.32 19.4228 21.722 19.2649C21.3577 19.1687 21.0173 18.7555 20.7292 18.2614L20.2388 16.9737C19.9727 16.2747 20.3003 15.4897 20.9845 15.1873Z" fill="#58565D"/>
<path d="M20.8266 15.5466C20.9893 15.4397 21.2023 15.4496 21.3541 15.5715C21.7526 15.8918 22.1919 16.2543 22.6176 16.625C23.4604 17.3586 23.9273 17.8437 24.1845 18.148C24.2256 18.1966 24.2033 18.2716 24.1424 18.2899C23.6215 18.4465 23.004 18.5056 22.5436 18.5056C22.2587 18.5056 22.0597 18.4842 21.9621 18.4637C21.9513 18.4614 21.9416 18.457 21.9324 18.4509C21.856 18.4001 21.57 18.1637 21.1631 17.2828C21.1166 17.1821 20.8357 16.5157 20.6592 16.0959C20.5752 15.8963 20.6457 15.6654 20.8266 15.5466Z" fill="#4E4D54"/>
<path d="M17.2661 24.7773H15.8967C15.251 24.7773 14.7275 24.2538 14.7275 23.6081V22.7339H18.4352V23.6081C18.4353 24.2538 17.9118 24.7773 17.2661 24.7773Z" fill="#2B2B2D"/>
<path d="M17.2043 22.7339V23.6081C17.2043 24.2538 16.6809 24.7773 16.0352 24.7773H17.2664C17.9121 24.7773 18.4355 24.2538 18.4355 23.6081V22.7339H17.2043Z" fill="#222223"/>
<path d="M19.8064 14.0751L18.3808 13.3139C17.8273 13.0184 17.2128 12.8492 16.5855 12.8393C16.5715 12.8391 16.5574 12.8389 16.5434 12.8388C15.8194 12.8323 15.1077 13.0261 14.4828 13.3918L13.3376 14.0619C12.4303 14.2623 11.8719 15.0886 11.9969 15.9939L12.4542 18.6348C12.5181 19.1081 12.775 19.5489 13.1688 19.8729C13.5074 20.1514 13.7329 20.5057 13.8127 20.8774L14.1037 22.2323C14.1931 22.6486 14.5611 22.9459 14.9869 22.9459H18.178C18.6038 22.9459 18.9718 22.6486 19.0612 22.2323L19.3522 20.8774C19.432 20.5057 19.6575 20.1514 19.9961 19.8728C20.3899 19.5488 20.6468 19.1081 20.7107 18.6347L21.1659 16.0097C21.2917 15.0977 20.7236 14.2674 19.8064 14.0751Z" fill="#58565D"/>
<path d="M19.8066 14.0751L18.381 13.3139C17.8276 13.0184 17.213 12.8492 16.5857 12.8393C16.5717 12.8391 16.5577 12.8389 16.5437 12.8388C16.3212 12.8368 16.0999 12.8539 15.8818 12.8889C16.3164 12.96 16.7375 13.1053 17.1282 13.3139L18.5538 14.0751C19.4711 14.2674 20.0392 15.0978 19.9133 16.0098L19.4581 18.6348C19.3942 19.1081 19.1373 19.5489 18.7435 19.8729C18.4049 20.1515 18.1794 20.5058 18.0996 20.8775L17.8086 22.2324C17.7192 22.6487 17.3512 22.946 16.9254 22.946H18.1782C18.604 22.946 18.972 22.6487 19.0614 22.2324L19.3524 20.8775C19.4322 20.5058 19.6577 20.1515 19.9963 19.8729C20.3901 19.5489 20.647 19.1082 20.7109 18.6348L21.1661 16.0098C21.292 15.0977 20.7239 14.2674 19.8066 14.0751Z" fill="#4E4D54"/>
<path d="M18.7959 21.7953C18.6609 21.2139 18.4965 21.1215 18.1042 21.115C17.7525 21.1092 17.403 21.1733 17.0732 21.2957L16.5815 21.4782L16.0898 21.2957C15.76 21.1733 15.4106 21.1092 15.0588 21.115C14.6665 21.1215 14.5021 21.2139 14.3671 21.7953C14.3215 21.9914 14.1989 22.9942 14.4202 23.344C14.6912 23.7726 15.3065 23.951 16.5815 23.968C17.8565 23.951 18.4718 23.7726 18.7428 23.344C18.964 22.9941 18.8415 21.9914 18.7959 21.7953Z" fill="#3D3D42"/>
<path d="M18.7958 21.7953C18.6608 21.2139 18.4964 21.1214 18.1042 21.1149C17.8306 21.1104 17.5586 21.1487 17.296 21.2232C17.4134 21.3168 17.4932 21.4875 17.5646 21.7953C17.6102 21.9913 17.7328 22.9941 17.5115 23.344C17.2885 23.6968 16.8316 23.88 15.9658 23.9432C16.1517 23.9568 16.3561 23.965 16.5814 23.9679C17.8564 23.951 18.4717 23.7726 18.7427 23.344C18.964 22.9941 18.8414 21.9914 18.7958 21.7953Z" fill="#343438"/>
<path d="M24.9063 8.88849C24.5282 8.67384 24.1408 8.51168 23.7965 8.39153C23.707 8.36031 23.6429 8.47883 23.7187 8.53571C24.3497 9.00995 25.1484 9.71922 25.3572 10.6455C25.8767 12.9495 23.9823 13.6746 23.1045 13.5881C23.1043 13.5881 23.1041 13.588 23.1039 13.588C21.8399 13.4631 20.287 12.5989 18.9852 11.7083C18.1762 11.1548 17.1581 11.3557 16.5812 12.0077C16.0044 11.3557 14.9863 11.1548 14.1773 11.7083C12.8755 12.5989 11.3226 13.4631 10.0585 13.588C10.0583 13.588 10.0581 13.5881 10.058 13.5881C9.18011 13.6746 7.2857 12.9495 7.80521 10.6455C8.01406 9.71922 8.81277 9.00995 9.4438 8.53571C9.51953 8.47879 9.45542 8.36031 9.36597 8.39153C9.02166 8.51164 8.63423 8.6738 8.25619 8.88849C6.82573 9.70096 6.2787 10.9243 6.42133 12.3707C6.96331 17.8653 14.5346 14.8493 16.5813 13.8717C18.6279 14.8493 26.1992 17.8653 26.7411 12.3706C26.8838 10.9243 26.3367 9.70096 24.9063 8.88849Z" fill="#8B8992"/>
<path d="M16.5811 12.6698C14.558 13.6361 7.13732 16.5938 6.44305 11.3551C6.39298 11.6786 6.38642 12.0179 6.42122 12.3706C6.96312 17.8653 14.5344 14.8493 16.5811 13.8717C18.6277 14.8493 26.199 17.8653 26.7409 12.3706C26.7757 12.0179 26.7691 11.6786 26.7191 11.3551C26.0248 16.5938 18.6042 13.6361 16.5811 12.6698Z" fill="#797882"/>
<path d="M13.7781 17.2547C13.6156 17.2815 13.5055 17.435 13.5324 17.5975C13.5592 17.7601 13.7127 17.8702 13.8753 17.8433C13.8986 17.8393 14.4523 17.7558 14.6555 18.3912C14.696 18.518 14.8133 18.5988 14.9395 18.5988C14.9697 18.5988 15.0002 18.5942 15.0305 18.5845C15.1874 18.5344 15.274 18.3665 15.2238 18.2096C14.937 17.3128 14.1526 17.1927 13.7781 17.2547Z" fill="#333333"/>
<path d="M14.4435 18.4655L13.9645 18.2137C13.8188 18.1369 13.6384 18.193 13.5617 18.3388C13.485 18.4846 13.541 18.665 13.6869 18.7416L14.1658 18.9935C14.2101 19.0168 14.2576 19.0279 14.3044 19.0279C14.4116 19.0279 14.5153 18.9699 14.5687 18.8683C14.6454 18.7226 14.5893 18.5422 14.4435 18.4655Z" fill="#333333"/>
<path d="M19.2909 17.8437C19.4525 17.8691 19.6047 17.7593 19.6314 17.5976C19.6582 17.435 19.5482 17.2815 19.3857 17.2547C19.0109 17.1928 18.2267 17.3128 17.94 18.2096C17.8899 18.3665 17.9764 18.5344 18.1333 18.5846C18.1635 18.5942 18.1941 18.5988 18.2242 18.5988C18.3505 18.5988 18.4678 18.518 18.5083 18.3913C18.7 17.7912 19.1927 17.8295 19.2909 17.8437Z" fill="#333333"/>
<path d="M19.1981 18.2136L18.7191 18.4655C18.5733 18.5422 18.5172 18.7225 18.5939 18.8683C18.6473 18.9699 18.7509 19.0279 18.8582 19.0279C18.905 19.0279 18.9525 19.0168 18.9968 18.9935L19.4758 18.7417C19.6216 18.665 19.6776 18.4846 19.6009 18.3388C19.5242 18.193 19.3439 18.1369 19.1981 18.2136Z" fill="#333333"/>
<path d="M15.5089 22.1595C15.4095 22.0281 15.2224 22.0021 15.091 22.1015C14.9596 22.2009 14.9337 22.388 15.0331 22.5194L15.4606 23.0846C15.5193 23.1621 15.6085 23.2029 15.6987 23.2029C15.7614 23.2029 15.8246 23.1833 15.8785 23.1425C16.0098 23.0431 16.0358 22.856 15.9364 22.7247L15.5089 22.1595Z" fill="#2B2B2D"/>
<path d="M18.0709 22.1015C17.9395 22.0021 17.7524 22.0281 17.653 22.1595L17.2255 22.7247C17.1261 22.856 17.152 23.0431 17.2834 23.1425C17.3373 23.1832 17.4005 23.2029 17.4631 23.2029C17.5534 23.2029 17.6426 23.1622 17.7013 23.0846L18.1288 22.5194C18.2282 22.388 18.2023 22.2009 18.0709 22.1015Z" fill="#2B2B2D"/>
</g>
<defs>
<clipPath id="clip0">
<rect width="20.3636" height="20.3636" fill="white" transform="translate(6.39941 6.4)"/>
</clipPath>
</defs>
</svg>
