<svg width="34" height="33" viewBox="0 0 34 33" fill="none" xmlns="http://www.w3.org/2000/svg">
<ellipse cx="17" cy="16.5" rx="17" ry="16.5" fill="#E9EBF1"/>
<g clip-path="url(#clip0)">
<path d="M20.3011 10.6619L17.1145 14.3276C17.011 14.4467 16.8365 14.4646 16.7249 14.3675L13.2883 11.3801C12.7301 10.8949 11.8578 10.9842 11.3403 11.5796C10.8227 12.175 10.8556 13.0512 11.4138 13.5364L14.8504 16.5239C14.9621 16.6209 14.9687 16.7961 14.8651 16.9152L11.6786 20.5809C11.161 21.1764 11.1939 22.0525 11.7521 22.5378C12.3103 23.023 13.1825 22.9337 13.7001 22.3382L16.8867 18.6725C16.9902 18.5534 17.1646 18.5356 17.2763 18.6326L20.7129 21.62C21.2711 22.1053 22.1433 22.0159 22.6609 21.4205C23.1785 20.8251 23.1456 19.9489 22.5874 19.4637L19.1507 16.4763C19.0391 16.3793 19.0325 16.204 19.136 16.0849L22.3226 12.4192C22.8402 11.8238 22.8073 10.9476 22.2491 10.4624C21.6909 9.97717 20.8186 10.0665 20.3011 10.6619Z" fill="#FF0000"/>
</g>
<defs>
<clipPath id="clip0">
<rect width="16" height="15" fill="white" transform="translate(9 9)"/>
</clipPath>
</defs>
</svg>
