<svg width="22" height="22" viewBox="0 0 22 22" fill="none" xmlns="http://www.w3.org/2000/svg">
<circle cx="11" cy="11" r="11" fill="#FF4444" fill-opacity="0.12"/>
<g clip-path="url(#clip0)">
<path d="M6.23438 6.625H8.46875V6.21875C8.46875 5.54564 9.01439 5 9.6875 5H11.3125C11.9856 5 12.5312 5.54564 12.5312 6.21875V6.625H14.7656C15.3265 6.625 15.7812 7.07972 15.7812 7.64062V8.45312C15.7812 8.6775 15.5994 8.85938 15.375 8.85938H5.625C5.40062 8.85938 5.21875 8.6775 5.21875 8.45312V7.64062C5.21875 7.07972 5.67347 6.625 6.23438 6.625ZM11.7188 6.21875C11.7188 5.9948 11.5364 5.8125 11.3125 5.8125H9.6875C9.46355 5.8125 9.28125 5.9948 9.28125 6.21875V6.625H11.7188V6.21875Z" fill="#FF4444"/>
<path d="M15.0098 9.85938C15.0823 9.85938 15.14 9.91996 15.1366 9.99237L14.8014 17.0266C14.7704 17.6777 14.2357 18.1875 13.5842 18.1875H7.41478C6.76325 18.1875 6.22853 17.6777 6.19755 17.0266L5.86239 9.99237C5.85894 9.91996 5.9167 9.85938 5.98919 9.85938H15.0098ZM8.87448 10.875C8.87448 10.6505 8.69269 10.4688 8.46823 10.4688C8.24378 10.4688 8.06198 10.6505 8.06198 10.875V16.1562C8.06198 16.3807 8.24378 16.5625 8.46823 16.5625C8.69269 16.5625 8.87448 16.3807 8.87448 16.1562V10.875ZM10.9057 10.875C10.9057 10.6505 10.7239 10.4688 10.4995 10.4688C10.275 10.4688 10.0932 10.6505 10.0932 10.875V16.1562C10.0932 16.3807 10.275 16.5625 10.4995 16.5625C10.7239 16.5625 10.9057 16.3807 10.9057 16.1562V10.875ZM12.937 10.875C12.937 10.6505 12.7552 10.4688 12.5307 10.4688C12.3063 10.4688 12.1245 10.6505 12.1245 10.875V16.1562C12.1245 16.3807 12.3063 16.5625 12.5307 16.5625C12.7552 16.5625 12.937 16.3807 12.937 16.1562V10.875Z" fill="#FF4444"/>
</g>
<defs>
<clipPath id="clip0">
<rect width="13" height="13" fill="white" transform="matrix(-1 0 0 1 17 5)"/>
</clipPath>
</defs>
</svg>
