<svg width="12" height="12" viewBox="0 0 12 12" fill="none" xmlns="http://www.w3.org/2000/svg">
<g clip-path="url(#clip0)">
<path d="M6.58212 7.53422C6.51525 7.51029 6.44027 7.52698 6.39021 7.57753L4.02491 9.94258C3.76256 10.2051 3.41322 10.3492 3.04117 10.3492C2.66912 10.3492 2.3199 10.2048 2.05767 9.94258C1.51531 9.39997 1.51531 8.51747 2.05767 7.9751L4.4226 5.61042C4.47291 5.56011 4.48972 5.48526 4.4658 5.41838C4.44187 5.35138 4.38137 5.30414 4.31069 5.29727L2.65943 5.13321C2.60409 5.12683 2.5501 5.14708 2.51107 5.18622L0.889748 6.80742C0.31597 7.38108 0 8.14517 0 8.95884C0 9.77251 0.31597 10.5365 0.889748 11.1103C1.4634 11.684 2.2275 12 3.04117 12C3.85484 12 4.61893 11.684 5.19271 11.1103L6.81404 9.48906C6.85306 9.45016 6.87257 9.39543 6.86705 9.34071L6.70323 7.68932C6.69612 7.61864 6.64924 7.55827 6.58212 7.53422Z" fill="#373643"/>
<path d="M11.1102 0.889748C10.5364 0.31597 9.7723 0 8.95863 0C8.14497 0 7.38087 0.31597 6.80721 0.889748L5.18577 2.51107C5.14675 2.54997 5.12724 2.60458 5.13276 2.65943L5.29682 4.31082C5.30381 4.38162 5.35105 4.44199 5.41805 4.46592C5.48505 4.48997 5.55978 4.47316 5.61009 4.42273L7.97489 2.05755C8.23724 1.7952 8.58659 1.65078 8.95863 1.65078C9.33068 1.65078 9.68003 1.79533 9.9425 2.05755C10.4849 2.59991 10.4849 3.48242 9.9425 4.02491L7.57745 6.38984C7.52714 6.44015 7.51033 6.51512 7.53425 6.582C7.55818 6.64888 7.61868 6.69612 7.68935 6.70299L9.3405 6.86705C9.34663 6.86791 9.35265 6.86815 9.35854 6.86815C9.40713 6.86815 9.454 6.84901 9.48885 6.81428L11.1102 5.19283C12.2964 4.0065 12.2964 2.07608 11.1102 0.889748Z" fill="#373643"/>
<path d="M1.08497 4.62557C1.08608 4.62557 1.08718 4.62557 1.08816 4.62557L3.07528 4.59096C3.1662 4.58937 3.2424 4.52163 3.25443 4.43132C3.26646 4.34113 3.21087 4.25561 3.1235 4.23008L1.21553 3.67373C1.16399 3.65864 1.10841 3.66686 1.06362 3.69631C1.01871 3.72551 0.988769 3.77288 0.981652 3.82613L0.902506 4.41709C0.895389 4.47034 0.911832 4.52384 0.94754 4.56385C0.982389 4.60311 1.03245 4.62557 1.08497 4.62557Z" fill="#FF0000"/>
<path d="M4.2303 3.12338C4.25337 3.20265 4.32614 3.2559 4.40688 3.2559C4.41498 3.2559 4.4232 3.25541 4.43142 3.25418C4.52161 3.24216 4.58947 3.16596 4.59106 3.07503L4.62554 1.08791C4.6264 1.03417 4.60395 0.982878 4.56382 0.947293C4.5237 0.911708 4.4702 0.895142 4.41694 0.902505L3.82598 0.982019C3.77285 0.989136 3.72549 1.0192 3.69628 1.06411C3.66708 1.10902 3.65886 1.16448 3.67383 1.2159L4.2303 3.12338Z" fill="#FF0000"/>
<path d="M10.9121 7.37445L8.92508 7.40893C8.83403 7.41065 8.75795 7.47813 8.7458 7.56857C8.73365 7.65876 8.78924 7.74429 8.87661 7.76993L10.7846 8.32641C10.8016 8.3312 10.8188 8.33377 10.8361 8.33377C10.8716 8.33377 10.9063 8.32359 10.9365 8.30395C10.9814 8.27475 11.0112 8.22738 11.0185 8.17401L11.0977 7.58317C11.1048 7.52979 11.0884 7.47642 11.0527 7.43641C11.017 7.39592 10.9634 7.37212 10.9121 7.37445Z" fill="#FF0000"/>
<path d="M7.76978 8.87686C7.74437 8.78949 7.65958 8.7328 7.56866 8.74605C7.47859 8.75832 7.41073 8.8344 7.40902 8.92533L7.37454 10.9121C7.37368 10.9658 7.39613 11.0171 7.43613 11.0527C7.47 11.0829 7.51381 11.0993 7.5586 11.0993C7.56669 11.0993 7.57492 11.0987 7.58314 11.0975L8.17397 11.0182C8.22723 11.0111 8.27459 10.9812 8.30392 10.9362C8.33312 10.8912 8.34135 10.8358 8.3265 10.7845L7.76978 8.87686Z" fill="#FF0000"/>
</g>
<defs>
<clipPath id="clip0">
<rect width="12" height="12" fill="white"/>
</clipPath>
</defs>
</svg>
