<svg width="17" height="17" viewBox="0 0 17 17" fill="none" xmlns="http://www.w3.org/2000/svg">
<circle cx="8.5" cy="8.5" r="8" stroke="#42BD16"/>
<g clip-path="url(#clip0)">
<path d="M11.2502 13H5.75016C5.24462 13 4.8335 12.5889 4.8335 12.0833V7.95833C4.8335 7.45279 5.24462 7.04166 5.75016 7.04166H11.2502C11.7557 7.04166 12.1668 7.45279 12.1668 7.95833V12.0833C12.1668 12.5889 11.7557 13 11.2502 13ZM5.75016 7.5C5.49716 7.5 5.29183 7.70579 5.29183 7.95833V12.0833C5.29183 12.3359 5.49716 12.5417 5.75016 12.5417H11.2502C11.5032 12.5417 11.7085 12.3359 11.7085 12.0833V7.95833C11.7085 7.70579 11.5032 7.5 11.2502 7.5H5.75016Z" fill="#42BD16"/>
<path d="M11.0204 7.5C10.8939 7.5 10.7913 7.39734 10.7913 7.27084V6.125C10.7913 5.77209 10.7079 5.42146 10.5502 5.11025C10.4929 4.9975 10.5383 4.85954 10.651 4.80225C10.7647 4.74542 10.9017 4.78988 10.9595 4.90309C11.1488 5.278 11.2496 5.70059 11.2496 6.125V7.27084C11.2496 7.39734 11.1469 7.5 11.0204 7.5Z" fill="#42BD16"/>
<path d="M5.97917 7.5C5.85267 7.5 5.75 7.39733 5.75 7.27083V6.125C5.75 4.60838 6.98338 3.375 8.5 3.375C8.83733 3.375 9.16229 3.43412 9.46617 3.55054C9.58442 3.59592 9.64354 3.72838 9.59817 3.84663C9.55279 3.96442 9.42033 4.02354 9.30208 3.97863C9.05092 3.88192 8.78096 3.83333 8.5 3.83333C7.23638 3.83333 6.20833 4.86138 6.20833 6.125V7.27083C6.20833 7.39733 6.10567 7.5 5.97917 7.5Z" fill="#42BD16"/>
<path d="M11.0208 3.375C10.9621 3.375 10.9035 3.35254 10.8585 3.30809C10.7692 3.21871 10.7692 3.07342 10.8585 2.98404L11.3169 2.52571C11.4062 2.43634 11.5515 2.43634 11.6409 2.52571C11.7303 2.61509 11.7303 2.76038 11.6409 2.84975L11.1826 3.30809C11.1381 3.35254 11.0795 3.375 11.0208 3.375Z" fill="#42BD16"/>
<path d="M11.9375 4.29167H11.4792C11.3527 4.29167 11.25 4.189 11.25 4.0625C11.25 3.936 11.3527 3.83334 11.4792 3.83334H11.9375C12.064 3.83334 12.1667 3.936 12.1667 4.0625C12.1667 4.189 12.064 4.29167 11.9375 4.29167Z" fill="#42BD16"/>
<path d="M10.1042 2.91666C9.97767 2.91666 9.875 2.81399 9.875 2.68749V2.22916C9.875 2.10266 9.97767 1.99999 10.1042 1.99999C10.2307 1.99999 10.3333 2.10266 10.3333 2.22916V2.68749C10.3333 2.81399 10.2307 2.91666 10.1042 2.91666Z" fill="#42BD16"/>
<path d="M8.50016 10.25C7.99462 10.25 7.5835 9.83887 7.5835 9.33333C7.5835 8.82779 7.99462 8.41666 8.50016 8.41666C9.0057 8.41666 9.41683 8.82779 9.41683 9.33333C9.41683 9.83887 9.0057 10.25 8.50016 10.25ZM8.50016 8.875C8.24716 8.875 8.04183 9.08079 8.04183 9.33333C8.04183 9.58587 8.24716 9.79166 8.50016 9.79166C8.75316 9.79166 8.95849 9.58587 8.95849 9.33333C8.95849 9.08079 8.75316 8.875 8.50016 8.875Z" fill="#42BD16"/>
<path d="M8.50016 11.625C8.37366 11.625 8.271 11.5223 8.271 11.3958V10.0208C8.271 9.89433 8.37366 9.79166 8.50016 9.79166C8.62666 9.79166 8.72933 9.89433 8.72933 10.0208V11.3958C8.72933 11.5223 8.62666 11.625 8.50016 11.625Z" fill="#42BD16"/>
</g>
<defs>
<clipPath id="clip0">
<rect width="11" height="11" fill="white" transform="translate(3 2)"/>
</clipPath>
</defs>
</svg>
