<svg width="17" height="17" viewBox="0 0 17 17" fill="none" xmlns="http://www.w3.org/2000/svg">
<path d="M16.1913 7.92251L13.2688 2.07751C13.0505 1.64031 12.7145 1.27272 12.2987 1.01611C11.8829 0.759495 11.4037 0.624045 10.915 0.625005H6.08501C5.59637 0.624045 5.11716 0.759495 4.70132 1.01611C4.28548 1.27272 3.94952 1.64031 3.73126 2.07751L0.808763 7.92251C0.686873 8.16706 0.623943 8.43676 0.625013 8.71001V13.75C0.625013 14.4462 0.901575 15.1139 1.39386 15.6062C1.88614 16.0984 2.55382 16.375 3.25001 16.375H13.75C14.4462 16.375 15.1139 16.0984 15.6062 15.6062C16.0984 15.1139 16.375 14.4462 16.375 13.75V8.71001C16.3761 8.43676 16.3132 8.16706 16.1913 7.92251ZM5.29751 2.85626C5.37089 2.71062 5.48351 2.5884 5.62265 2.50336C5.7618 2.41833 5.92194 2.37387 6.08501 2.37501H10.915C11.0781 2.37387 11.2382 2.41833 11.3774 2.50336C11.5165 2.5884 11.6291 2.71062 11.7025 2.85626L14.0825 7.62501H12C11.7679 7.62501 11.5454 7.71719 11.3813 7.88129C11.2172 8.04538 11.125 8.26794 11.125 8.50001V11.125H5.87501V8.50001C5.87501 8.26794 5.78283 8.04538 5.61873 7.88129C5.45464 7.71719 5.23208 7.62501 5.00001 7.62501H2.91751L5.29751 2.85626ZM13.75 14.625H3.25001C3.01795 14.625 2.79539 14.5328 2.63129 14.3687C2.4672 14.2046 2.37501 13.9821 2.37501 13.75V9.37501H4.12501V12C4.12501 12.2321 4.2172 12.4546 4.38129 12.6187C4.54539 12.7828 4.76795 12.875 5.00001 12.875H12C12.2321 12.875 12.4546 12.7828 12.6187 12.6187C12.7828 12.4546 12.875 12.2321 12.875 12V9.37501H14.625V13.75C14.625 13.9821 14.5328 14.2046 14.3687 14.3687C14.2046 14.5328 13.9821 14.625 13.75 14.625Z" fill="#778694"/>
</svg>
