<svg width="36" height="36" viewBox="0 0 36 36" fill="none" xmlns="http://www.w3.org/2000/svg">
<circle cx="18" cy="18" r="18" fill="#3AC759"/>
<g clip-path="url(#clip0)">
<path d="M27.3972 13.1891C27.2595 12.0203 26.7319 10.932 25.8995 10.1001C25.0671 9.26817 23.9786 8.74113 22.8097 8.60412C19.1349 8.17428 15.4225 8.17428 11.7476 8.60412C10.5788 8.74142 9.49031 9.26877 8.65811 10.101C7.8259 10.9332 7.29855 12.0216 7.16125 13.1905C6.73141 16.8653 6.73141 20.5778 7.16125 24.2526C7.29848 25.4215 7.82579 26.5101 8.658 27.3424C9.49022 28.1746 10.5787 28.702 11.7476 28.8394C15.4225 29.2692 19.1349 29.2692 22.8097 28.8394C23.9791 28.7022 25.068 28.1747 25.9004 27.3421C26.7329 26.5095 27.2602 25.4205 27.3972 24.2512C27.827 20.5763 27.827 16.8639 27.3972 13.1891ZM17.2812 21.7031L13.5502 23.1946L17.2787 14.246L21.0072 23.1946L17.2812 21.7031Z" fill="white"/>
<path d="M28.1155 13.1041C27.9642 11.7719 27.3656 10.5303 26.4175 9.58216C25.4693 8.63405 24.2277 8.03545 22.8955 7.88414C19.1641 7.44967 15.3949 7.44967 11.6635 7.88414C10.3312 8.03545 9.08962 8.63405 8.14151 9.58216C7.1934 10.5303 6.5948 11.7719 6.44349 13.1041C6.30957 14.2518 6.22209 15.4049 6.17061 16.5601H7.61061C7.66137 15.4614 7.74525 14.3641 7.87269 13.2719C7.9875 12.2622 8.44131 11.3213 9.15999 10.6029C9.87867 9.88449 10.8197 9.43102 11.8294 9.31658C13.3999 9.13536 14.9784 9.03335 16.5591 9.01094V11.1601H17.9991V9.01094C19.5797 9.03335 21.1581 9.13536 22.7284 9.31658C23.738 9.43108 24.679 9.88454 25.3976 10.6029C26.1162 11.3212 26.57 12.262 26.6848 13.2715C26.8663 14.8416 26.9685 16.4198 26.9908 18.0001H24.8416V19.4401H26.9908C26.9685 21.0204 26.8663 22.5984 26.6848 24.1684C26.5701 25.178 26.1164 26.1188 25.3978 26.8373C24.6793 27.5558 23.7384 28.0094 22.7288 28.124C21.1585 28.3053 19.5801 28.4073 17.9995 28.4297V26.2801H16.5595V28.4286C14.9788 28.4062 13.4002 28.3042 11.8298 28.123C10.8203 28.0084 9.87953 27.5551 9.16095 26.8369C8.44238 26.1187 7.9885 25.1781 7.87341 24.1687C7.6917 22.5987 7.58993 21.0205 7.56849 19.4401H9.71661V18.0001H6.12705C6.09388 20.1168 6.19934 22.2333 6.44277 24.3361C6.59402 25.6684 7.1926 26.91 8.14072 27.8582C9.08885 28.8063 10.3305 29.4049 11.6628 29.5561C15.3942 29.9904 19.1634 29.9904 22.8948 29.5561C24.2271 29.4049 25.4687 28.8063 26.4168 27.8582C27.3649 26.91 27.9635 25.6684 28.1148 24.3361C28.55 20.6048 28.5502 16.8355 28.1155 13.1041Z" fill="#377D47"/>
<path d="M18.0632 18.0001H19.6231L17.2788 12.3741L12.2266 24.4996L17.2788 22.4785L22.331 24.4996L20.2232 19.4401H18.6634L19.684 21.8896L17.2788 20.9277L14.874 21.8896L17.2788 16.1177L18.0632 18.0001Z" fill="#3AC759"/>
</g>
<defs>
<clipPath id="clip0">
<rect width="23.04" height="23.04" fill="white" transform="translate(5.76172 7.20013)"/>
</clipPath>
</defs>
</svg>
