<svg width="13" height="13" viewBox="0 0 13 13" fill="none" xmlns="http://www.w3.org/2000/svg">
<rect width="13" height="13" rx="1" fill="#42BD16"/>
<g clip-path="url(#clip0)">
<path d="M9.6861 6.27358L8.70172 5.28921C8.63994 5.22742 8.55614 5.19271 8.46876 5.19271C8.38138 5.19271 8.29757 5.22742 8.23579 5.28921C8.174 5.351 8.13929 5.4348 8.13929 5.52218C8.13929 5.60956 8.174 5.69336 8.23579 5.75515L8.65907 6.17187H6.82813V4.33765L7.25141 4.76421C7.28207 4.79462 7.31843 4.81868 7.35841 4.83501C7.39839 4.85134 7.4412 4.85961 7.48438 4.85937C7.52756 4.85961 7.57037 4.85134 7.61035 4.83501C7.65033 4.81868 7.68669 4.79462 7.71735 4.76421C7.7481 4.73371 7.77251 4.69741 7.78917 4.65743C7.80583 4.61744 7.81441 4.57456 7.81441 4.53124C7.81441 4.48792 7.80583 4.44504 7.78917 4.40505C7.77251 4.36507 7.7481 4.32877 7.71735 4.29827L6.73297 3.3139C6.70231 3.28349 6.66595 3.25943 6.62597 3.2431C6.586 3.22677 6.54319 3.21849 6.50001 3.21874C6.41393 3.2191 6.33143 3.25328 6.27032 3.3139L5.28594 4.29827C5.25535 4.32865 5.23104 4.36476 5.2144 4.40453C5.19776 4.4443 5.18912 4.48697 5.18896 4.53008C5.18881 4.57319 5.19715 4.61592 5.21351 4.65581C5.22987 4.6957 5.25392 4.73197 5.2843 4.76257C5.31468 4.79316 5.35079 4.81747 5.39056 4.83411C5.43034 4.85075 5.473 4.8594 5.51611 4.85955C5.60318 4.85986 5.68681 4.82556 5.7486 4.76421L6.17188 4.34093V6.17187H4.33766L4.76422 5.74858C4.82601 5.6868 4.86072 5.603 4.86072 5.51562C4.86072 5.42824 4.82601 5.34443 4.76422 5.28265C4.70244 5.22086 4.61864 5.18615 4.53126 5.18615C4.44388 5.18615 4.36007 5.22086 4.29829 5.28265L3.31391 6.26702C3.2835 6.29768 3.25944 6.33404 3.24311 6.37402C3.22678 6.414 3.21851 6.45681 3.21876 6.49999C3.21851 6.54317 3.22678 6.58598 3.24311 6.62596C3.25944 6.66594 3.2835 6.7023 3.31391 6.73296L4.29829 7.71733C4.32895 7.74775 4.36531 7.7718 4.40529 7.78813C4.44526 7.80446 4.48807 7.81274 4.53126 7.81249C4.57444 7.81274 4.61725 7.80446 4.65722 7.78813C4.6972 7.7718 4.73356 7.74775 4.76422 7.71733C4.79498 7.68683 4.81939 7.65054 4.83605 7.61055C4.85271 7.57057 4.86128 7.52768 4.86128 7.48437C4.86128 7.44105 4.85271 7.39816 4.83605 7.35818C4.81939 7.31819 4.79498 7.2819 4.76422 7.2514L4.34094 6.82812H6.17188V8.66233L5.7486 8.23577C5.71801 8.20518 5.68169 8.18091 5.64171 8.16435C5.60174 8.14779 5.5589 8.13927 5.51563 8.13927C5.47236 8.13927 5.42952 8.14779 5.38955 8.16435C5.34958 8.18091 5.31326 8.20518 5.28266 8.23577C5.25207 8.26637 5.2278 8.30269 5.21124 8.34266C5.19468 8.38263 5.18616 8.42547 5.18616 8.46874C5.18616 8.51201 5.19468 8.55485 5.21124 8.59482C5.2278 8.63479 5.25207 8.67111 5.28266 8.70171L6.26704 9.68608C6.2977 9.7165 6.33406 9.74056 6.37404 9.75688C6.41401 9.77321 6.45682 9.78149 6.50001 9.78124C6.58609 9.78088 6.66858 9.7467 6.72969 9.68608L7.71407 8.70171C7.77586 8.63992 7.81057 8.55612 7.81057 8.46874C7.81057 8.38136 7.77586 8.29756 7.71407 8.23577C7.65228 8.17399 7.56848 8.13927 7.4811 8.13927C7.39372 8.13927 7.30992 8.17399 7.24813 8.23577L6.82813 8.65905V6.82812H8.66235L8.23579 7.2514C8.20503 7.2819 8.18062 7.31819 8.16396 7.35818C8.1473 7.39816 8.13873 7.44105 8.13873 7.48437C8.13873 7.52768 8.1473 7.57057 8.16396 7.61055C8.18062 7.65054 8.20503 7.68683 8.23579 7.71733C8.26645 7.74775 8.30281 7.7718 8.34279 7.78813C8.38276 7.80446 8.42557 7.81274 8.46876 7.81249C8.51194 7.81274 8.55475 7.80446 8.59473 7.78813C8.6347 7.7718 8.67106 7.74775 8.70172 7.71733L9.6861 6.73296C9.71651 6.7023 9.74057 6.66594 9.7569 6.62596C9.77323 6.58598 9.78151 6.54317 9.78126 6.49999C9.78004 6.41505 9.74593 6.33389 9.6861 6.27358Z" fill="white"/>
</g>
<defs>
<clipPath id="clip0">
<rect width="7" height="7" fill="white" transform="translate(3 3)"/>
</clipPath>
</defs>
</svg>
