<svg width="25" height="25" viewBox="0 0 25 25" fill="none" xmlns="http://www.w3.org/2000/svg">
<g clip-path="url(#clip0)">
<path d="M21.875 25H3.12499C1.40208 25 -7.62939e-06 23.5979 -7.62939e-06 21.875V17.7084C-7.62939e-06 17.1334 0.466659 16.6667 1.04166 16.6667C1.61666 16.6667 2.08333 17.1334 2.08333 17.7084V21.875C2.08333 22.449 2.55103 22.9167 3.12499 22.9167H21.875C22.4489 22.9167 22.9167 22.449 22.9167 21.875V17.7084C22.9167 17.1334 23.3833 16.6667 23.9583 16.6667C24.5333 16.6667 25 17.1334 25 17.7084V21.875C25 23.5979 23.5979 25 21.875 25Z" fill="#FF4444"/>
<path d="M17.4031 13.2365L13.2364 17.4031C12.8291 17.8104 12.1708 17.8104 11.7635 17.4031L7.59683 13.2365C7.29892 12.9385 7.20933 12.4906 7.37079 12.101C7.53225 11.7125 7.91246 11.4583 8.33329 11.4583H11.4583V1.04167C11.4583 0.466667 11.925 0 12.5 0C13.075 0 13.5416 0.466667 13.5416 1.04167V11.4583H16.6666C17.0875 11.4583 17.4677 11.7125 17.6291 12.101C17.7906 12.4906 17.701 12.9385 17.4031 13.2365Z" fill="#FF4444"/>
</g>
<defs>
<clipPath id="clip0">
<rect width="25" height="25" fill="white"/>
</clipPath>
</defs>
</svg>
