<svg width="151" height="112" viewBox="0 0 151 112" fill="none" xmlns="http://www.w3.org/2000/svg">
<rect width="151" height="112" rx="4" fill="#EEEEEE"/>
<g clip-path="url(#clip0)">
<path d="M82.7953 14.3119C82.5477 14.0511 82.2082 13.8945 81.8563 13.8945H60.791C56.9039 13.8945 53.6953 17.0903 53.6953 20.977V60.8117C53.6953 64.6988 56.9039 67.8946 60.791 67.8946H89.3821C93.2692 67.8946 96.4778 64.6988 96.4778 60.8117V29.1813C96.4778 28.8423 96.3212 28.5164 96.0996 28.2684L82.7953 14.3119ZM83.1735 18.4989L92.0823 27.851H86.291C84.5693 27.851 83.1735 26.4684 83.1735 24.7467V18.4989ZM89.3821 65.2859H60.791C58.352 65.2859 56.304 63.2643 56.304 60.8117V20.977C56.304 18.538 58.3388 16.5032 60.791 16.5032H80.5648V24.7467C80.5648 27.9161 83.1216 30.4597 86.291 30.4597H93.8691V60.8117C93.8691 63.2643 91.8343 65.2859 89.3821 65.2859Z" fill="#FF0000"/>
<path d="M85.8212 56.2861H64.3517C63.6344 56.2861 63.0474 56.8728 63.0474 57.5905C63.0474 58.3078 63.6344 58.8948 64.3517 58.8948H85.8344C86.5517 58.8948 87.1388 58.3078 87.1388 57.5905C87.1388 56.8728 86.5517 56.2861 85.8212 56.2861Z" fill="#FF0000"/>
<path d="M68.4085 42.2513L73.7825 36.4727V50.7164C73.7825 51.4337 74.3695 52.0208 75.0868 52.0208C75.8045 52.0208 76.3912 51.4337 76.3912 50.7164V36.4727L81.7651 42.2513C82.0259 42.5249 82.3654 42.6686 82.7172 42.6686C83.0304 42.6686 83.3567 42.5512 83.6043 42.3164C84.1262 41.8208 84.1654 40.9988 83.6698 40.4773L76.0261 32.2729C75.7781 32.0121 75.4391 31.8556 75.074 31.8556C74.7086 31.8556 74.3695 32.0121 74.1219 32.2729L66.4783 40.4773C65.9827 40.9988 66.0218 41.8335 66.5434 42.3164C67.0914 42.812 67.9129 42.7729 68.4085 42.2513Z" fill="#FF0000"/>
</g>
<path d="M40.2931 98.144C38.8105 98.144 37.6851 97.7547 36.9171 96.976C36.1491 96.1867 35.7651 95.04 35.7651 93.536V86.72H37.0771V93.472C37.0771 95.808 38.1491 96.976 40.2931 96.976C42.4158 96.976 43.4771 95.808 43.4771 93.472V86.72H44.7891V93.536C44.7891 95.04 44.4051 96.1867 43.6371 96.976C42.8798 97.7547 41.7651 98.144 40.2931 98.144ZM47.3098 100.88V90.224H48.5738V91.616C48.8084 91.136 49.1551 90.7627 49.6138 90.496C50.0831 90.2187 50.6271 90.08 51.2458 90.08C51.9391 90.08 52.5418 90.2453 53.0538 90.576C53.5764 90.896 53.9764 91.36 54.2538 91.968C54.5418 92.5653 54.6858 93.28 54.6858 94.112C54.6858 94.9333 54.5418 95.648 54.2538 96.256C53.9764 96.8533 53.5764 97.3173 53.0538 97.648C52.5418 97.9787 51.9391 98.144 51.2458 98.144C50.6484 98.144 50.1151 98.0107 49.6458 97.744C49.1764 97.4773 48.8298 97.1093 48.6058 96.64V100.88H47.3098ZM50.9738 97.104C51.6991 97.104 52.2804 96.848 52.7178 96.336C53.1551 95.8133 53.3738 95.072 53.3738 94.112C53.3738 93.1413 53.1551 92.4 52.7178 91.888C52.2804 91.376 51.6991 91.12 50.9738 91.12C50.2484 91.12 49.6671 91.376 49.2298 91.888C48.7924 92.4 48.5738 93.1413 48.5738 94.112C48.5738 95.072 48.7924 95.8133 49.2298 96.336C49.6671 96.848 50.2484 97.104 50.9738 97.104ZM59.0219 98.144C58.2325 98.144 57.6352 97.9147 57.2299 97.456C56.8352 96.9867 56.6379 96.3093 56.6379 95.424V86.72H57.9339V95.328C57.9339 96.4693 58.3872 97.04 59.2939 97.04C59.5605 97.04 59.8005 97.008 60.0139 96.944L59.9819 98.032C59.6512 98.1067 59.3312 98.144 59.0219 98.144ZM64.5261 98.144C63.7688 98.144 63.1128 97.9787 62.5581 97.648C62.0035 97.3173 61.5715 96.8533 61.2621 96.256C60.9635 95.648 60.8141 94.9333 60.8141 94.112C60.8141 93.2907 60.9635 92.5813 61.2621 91.984C61.5715 91.376 62.0035 90.9067 62.5581 90.576C63.1128 90.2453 63.7688 90.08 64.5261 90.08C65.2728 90.08 65.9235 90.2453 66.4781 90.576C67.0435 90.9067 67.4755 91.376 67.7741 91.984C68.0835 92.5813 68.2381 93.2907 68.2381 94.112C68.2381 94.9333 68.0835 95.648 67.7741 96.256C67.4755 96.8533 67.0435 97.3173 66.4781 97.648C65.9235 97.9787 65.2728 98.144 64.5261 98.144ZM64.5261 97.104C65.2515 97.104 65.8328 96.848 66.2701 96.336C66.7075 95.8133 66.9261 95.072 66.9261 94.112C66.9261 93.1413 66.7075 92.4 66.2701 91.888C65.8328 91.376 65.2515 91.12 64.5261 91.12C63.7901 91.12 63.2035 91.376 62.7661 91.888C62.3395 92.4 62.1261 93.1413 62.1261 94.112C62.1261 95.072 62.3395 95.8133 62.7661 96.336C63.2035 96.848 63.7901 97.104 64.5261 97.104ZM72.6328 98.144C72.0994 98.144 71.6194 98.0427 71.1928 97.84C70.7768 97.6267 70.4461 97.3387 70.2008 96.976C69.9554 96.6133 69.8328 96.208 69.8328 95.76C69.8328 95.1947 69.9768 94.7467 70.2648 94.416C70.5634 94.0853 71.0488 93.8507 71.7208 93.712C72.4034 93.5627 73.3314 93.488 74.5048 93.488H75.0168V92.992C75.0168 92.3307 74.8781 91.856 74.6008 91.568C74.3341 91.2693 73.9021 91.12 73.3048 91.12C72.8354 91.12 72.3821 91.1893 71.9448 91.328C71.5074 91.456 71.0594 91.6693 70.6008 91.968L70.1528 91.024C70.5581 90.736 71.0488 90.5067 71.6248 90.336C72.2114 90.1653 72.7714 90.08 73.3048 90.08C74.3074 90.08 75.0488 90.3253 75.5288 90.816C76.0194 91.3067 76.2648 92.0693 76.2648 93.104V98H75.0488V96.656C74.8461 97.1147 74.5314 97.4773 74.1048 97.744C73.6888 98.0107 73.1981 98.144 72.6328 98.144ZM72.8408 97.168C73.4808 97.168 74.0034 96.9493 74.4088 96.512C74.8141 96.064 75.0168 95.4987 75.0168 94.816V94.336H74.5208C73.6568 94.336 72.9741 94.3787 72.4728 94.464C71.9821 94.5387 71.6354 94.6773 71.4328 94.88C71.2408 95.072 71.1448 95.3387 71.1448 95.68C71.1448 96.1173 71.2941 96.4747 71.5928 96.752C71.9021 97.0293 72.3181 97.168 72.8408 97.168ZM81.6291 98.144C80.9358 98.144 80.3278 97.9787 79.8051 97.648C79.2931 97.3173 78.8931 96.8533 78.6051 96.256C78.3278 95.648 78.1891 94.9333 78.1891 94.112C78.1891 93.28 78.3278 92.5653 78.6051 91.968C78.8931 91.36 79.2931 90.896 79.8051 90.576C80.3278 90.2453 80.9358 90.08 81.6291 90.08C82.2371 90.08 82.7705 90.2133 83.2291 90.48C83.6985 90.7467 84.0451 91.1147 84.2691 91.584V86.72H85.5651V98H84.3011V96.576C84.0771 97.0667 83.7305 97.4507 83.2611 97.728C82.7918 98.0053 82.2478 98.144 81.6291 98.144ZM81.9011 97.104C82.6265 97.104 83.2078 96.848 83.6451 96.336C84.0825 95.8133 84.3011 95.072 84.3011 94.112C84.3011 93.1413 84.0825 92.4 83.6451 91.888C83.2078 91.376 82.6265 91.12 81.9011 91.12C81.1651 91.12 80.5785 91.376 80.1411 91.888C79.7145 92.4 79.5011 93.1413 79.5011 94.112C79.5011 95.072 79.7145 95.8133 80.1411 96.336C80.5785 96.848 81.1651 97.104 81.9011 97.104ZM92.2826 98V86.72H99.2586V87.824H93.5946V91.76H98.9386V92.864H93.5946V98H92.2826ZM100.712 88.288V86.832H102.312V88.288H100.712ZM100.872 98V90.224H102.168V98H100.872ZM106.975 98.144C106.186 98.144 105.588 97.9147 105.183 97.456C104.788 96.9867 104.591 96.3093 104.591 95.424V86.72H105.887V95.328C105.887 96.4693 106.34 97.04 107.247 97.04C107.514 97.04 107.754 97.008 107.967 96.944L107.935 98.032C107.604 98.1067 107.284 98.144 106.975 98.144ZM112.751 98.144C111.525 98.144 110.554 97.7867 109.839 97.072C109.125 96.3467 108.767 95.3653 108.767 94.128C108.767 93.328 108.927 92.624 109.247 92.016C109.567 91.3973 110.005 90.9227 110.559 90.592C111.125 90.2507 111.775 90.08 112.511 90.08C113.567 90.08 114.394 90.4213 114.991 91.104C115.589 91.776 115.887 92.704 115.887 93.888V94.384H110.031C110.074 95.2693 110.33 95.9467 110.799 96.416C111.269 96.8747 111.919 97.104 112.751 97.104C113.221 97.104 113.669 97.0347 114.095 96.896C114.522 96.7467 114.927 96.5067 115.311 96.176L115.759 97.088C115.407 97.4187 114.959 97.68 114.415 97.872C113.871 98.0533 113.317 98.144 112.751 98.144ZM112.543 91.04C111.807 91.04 111.226 91.2693 110.799 91.728C110.373 92.1867 110.122 92.7893 110.047 93.536H114.767C114.735 92.7467 114.527 92.1333 114.143 91.696C113.77 91.2587 113.237 91.04 112.543 91.04Z" fill="#373643"/>
<defs>
<clipPath id="clip0">
<rect width="54" height="54" fill="white" transform="translate(48 14)"/>
</clipPath>
</defs>
</svg>
