<svg width="36" height="36" viewBox="0 0 36 36" fill="none" xmlns="http://www.w3.org/2000/svg">
<circle cx="18" cy="18" r="18" fill="#FF900D"/>
<g clip-path="url(#clip0)">
<path d="M28.8376 13.1891C28.7 12.0203 28.1723 10.932 27.3399 10.1001C26.5075 9.26817 25.419 8.74113 24.2502 8.60412C20.5753 8.17428 16.8629 8.17428 13.1881 8.60412C12.0192 8.74142 10.9307 9.26877 10.0985 10.101C9.26633 10.9332 8.73898 12.0216 8.60168 13.1905C8.17184 16.8653 8.17184 20.5778 8.60168 24.2526C8.73891 25.4215 9.26622 26.5101 10.0984 27.3424C10.9306 28.1746 12.0191 28.702 13.1881 28.8394C16.8629 29.2692 20.5753 29.2692 24.2502 28.8394C25.4195 28.7022 26.5084 28.1747 27.3409 27.3421C28.1733 26.5095 28.7007 25.4205 28.8376 24.2512C29.2675 20.5763 29.2675 16.8639 28.8376 13.1891ZM18.7216 21.7031L14.9906 23.1946L18.7191 14.246L22.4476 23.1946L18.7216 21.7031Z" fill="white"/>
<path d="M29.5559 13.1041C29.4046 11.7719 28.806 10.5303 27.8579 9.58216C26.9098 8.63405 25.6682 8.03545 24.3359 7.88414C20.6045 7.44967 16.8353 7.44967 13.1039 7.88414C11.7716 8.03545 10.5301 8.63405 9.58194 9.58216C8.63383 10.5303 8.03523 11.7719 7.88392 13.1041C7.75 14.2518 7.66252 15.4049 7.61104 16.5601H9.05104C9.1018 15.4614 9.18568 14.3641 9.31312 13.2719C9.42793 12.2622 9.88174 11.3213 10.6004 10.6029C11.3191 9.88449 12.2602 9.43102 13.2699 9.31658C14.8403 9.13536 16.4189 9.03335 17.9996 9.01094V11.1601H19.4396V9.01094C21.0201 9.03335 22.5986 9.13536 24.1689 9.31658C25.1785 9.43108 26.1194 9.88454 26.838 10.6029C27.5566 11.3212 28.0104 12.262 28.1253 13.2715C28.3068 14.8416 28.4089 16.4198 28.4313 18.0001H26.2821V19.4401H28.4313C28.4089 21.0204 28.3068 22.5984 28.1253 24.1684C28.0105 25.178 27.5568 26.1188 26.8383 26.8373C26.1197 27.5558 25.1788 28.0094 24.1692 28.124C22.5989 28.3053 21.0205 28.4073 19.4399 28.4297V26.2801H17.9999V28.4286C16.4192 28.4062 14.8407 28.3042 13.2702 28.123C12.2608 28.0084 11.32 27.5551 10.6014 26.8369C9.88281 26.1187 9.42893 25.1781 9.31384 24.1687C9.13213 22.5987 9.03036 21.0205 9.00892 19.4401H11.157V18.0001H7.56748C7.53431 20.1168 7.63977 22.2333 7.8832 24.3361C8.03445 25.6684 8.63303 26.91 9.58115 27.8582C10.5293 28.8063 11.7709 29.4049 13.1032 29.5561C16.8346 29.9904 20.6038 29.9904 24.3352 29.5561C25.6675 29.4049 26.9091 28.8063 27.8572 27.8582C28.8054 26.91 29.4039 25.6684 29.5552 24.3361C29.9904 20.6048 29.9907 16.8355 29.5559 13.1041Z" fill="black" fill-opacity="0.26"/>
<path d="M19.5037 18.0001H21.0635L18.7192 12.3741L13.667 24.4996L18.7192 22.4785L23.7715 24.4996L21.6637 19.4401H20.1038L21.1244 21.8896L18.7192 20.9277L16.3144 21.8896L18.7192 16.1177L19.5037 18.0001Z" fill="#E9EBF1"/>
</g>
<defs>
<clipPath id="clip0">
<rect width="23.04" height="23.04" fill="white" transform="translate(7.20215 7.20013)"/>
</clipPath>
</defs>
</svg>
