<svg width="18" height="18" viewBox="0 0 18 18" fill="none" xmlns="http://www.w3.org/2000/svg">
<path d="M8.81463 0C3.94688 0 0 3.94688 0 8.81463C0 13.6824 3.94688 17.63 8.81463 17.63C13.6824 17.63 17.63 13.6824 17.63 8.81463C17.63 3.94688 13.6824 0 8.81463 0ZM10.6496 13.6615C10.1959 13.8406 9.83474 13.9764 9.56386 14.0704C9.29371 14.1644 8.97955 14.2115 8.6221 14.2115C8.07286 14.2115 7.64526 14.0771 7.3408 13.8092C7.03633 13.5413 6.88484 13.2018 6.88484 12.7891C6.88484 12.6287 6.89603 12.4645 6.91842 12.2973C6.94156 12.1302 6.97812 11.9421 7.02812 11.7309L7.59601 9.72504C7.64601 9.53251 7.68929 9.34968 7.72362 9.17954C7.75795 9.0079 7.77436 8.85045 7.77436 8.70717C7.77436 8.45195 7.72138 8.27285 7.61616 8.17211C7.50945 8.07137 7.30871 8.02212 7.00946 8.02212C6.8632 8.02212 6.71246 8.04376 6.55799 8.08928C6.40501 8.13629 6.27218 8.17883 6.16322 8.22062L6.31322 7.60273C6.68485 7.45124 7.04081 7.32139 7.38035 7.21393C7.71989 7.10498 8.04077 7.05125 8.343 7.05125C8.8885 7.05125 9.30939 7.18408 9.60564 7.44676C9.90041 7.71019 10.0489 8.05271 10.0489 8.47359C10.0489 8.5609 10.0385 8.71463 10.0183 8.93403C9.99817 9.15417 9.96011 9.35491 9.90489 9.53923L9.33998 11.5392C9.29371 11.6996 9.25267 11.8832 9.21536 12.0884C9.17879 12.2936 9.16088 12.4503 9.16088 12.5555C9.16088 12.8212 9.21984 13.0025 9.33924 13.0988C9.45714 13.1951 9.66385 13.2436 9.95638 13.2436C10.0944 13.2436 10.2489 13.219 10.4235 13.1712C10.5967 13.1234 10.722 13.0809 10.8011 13.0443L10.6496 13.6615ZM10.5496 5.54384C10.2862 5.78861 9.96907 5.91099 9.59818 5.91099C9.22805 5.91099 8.90865 5.78861 8.64299 5.54384C8.37882 5.29907 8.24524 5.00132 8.24524 4.65357C8.24524 4.30657 8.37957 4.00807 8.64299 3.76107C8.90865 3.51331 9.22805 3.39018 9.59818 3.39018C9.96907 3.39018 10.287 3.51331 10.5496 3.76107C10.8131 4.00807 10.9452 4.30657 10.9452 4.65357C10.9452 5.00207 10.8131 5.29907 10.5496 5.54384Z" fill="#9AA1A9"/>
</svg>
