<svg width="15" height="15" viewBox="0 0 15 15" fill="none" xmlns="http://www.w3.org/2000/svg">
<path d="M7.5 0C10.4078 0 12.7734 2.36566 12.7734 5.27344C12.7734 6.25588 12.5013 7.21465 11.9863 8.04645L7.80018 14.7923C7.71999 14.9215 7.57872 15 7.42679 15C7.42562 15 7.42447 15 7.4233 15C7.27005 14.9988 7.12849 14.9179 7.04977 14.7864L2.97038 7.9752C2.48376 7.16098 2.22656 6.22673 2.22656 5.27344C2.22656 2.36566 4.59223 0 7.5 0ZM3.72463 7.52396L7.43344 13.7164L11.2392 7.58338C11.6679 6.89104 11.9004 6.09229 11.9004 5.27344C11.9004 2.85029 9.92314 0.873047 7.5 0.873047C5.07686 0.873047 3.10254 2.85029 3.10254 5.27344C3.10254 6.068 3.31966 6.84633 3.72463 7.52396Z" fill="#FF4444"/>
<path d="M7.5 2.63672C8.95389 2.63672 10.1367 3.81955 10.1367 5.27344C10.1367 6.71804 8.97313 7.91016 7.5 7.91016C6.0087 7.91016 4.86328 6.70216 4.86328 5.27344C4.86328 3.81955 6.04611 2.63672 7.5 2.63672ZM7.5 7.03711C8.47433 7.03711 9.26367 6.24513 9.26367 5.27344C9.26367 4.30418 8.46926 3.50977 7.5 3.50977C6.53074 3.50977 5.73926 4.30418 5.73926 5.27344C5.73926 6.23095 6.51023 7.03711 7.5 7.03711Z" fill="#FF4444"/>
</svg>
