<svg width="49" height="49" viewBox="0 0 49 49" fill="none" xmlns="http://www.w3.org/2000/svg">
<g filter="url(#filter0_d)">
<rect x="4" y="3" width="41" height="41" rx="3" fill="white"/>
</g>
<path d="M14.2727 18C15.5227 18 16.5454 19.0227 16.5454 20.2727C16.5454 20.4773 16.5227 20.6704 16.4658 20.8523L20.4999 24.8977C20.6817 24.8409 20.8863 24.8182 21.0908 24.8182C21.2954 24.8182 21.4999 24.8409 21.6818 24.8977L24.5795 22C24.5226 21.8182 24.4999 21.6136 24.4999 21.4091C24.4999 20.1591 25.5226 19.1364 26.7726 19.1364C28.0226 19.1364 29.0453 20.1591 29.0453 21.4091C29.0453 21.6136 29.0226 21.8182 28.9658 22L34.1477 27.1705C34.3295 27.1137 34.5227 27.0909 34.7272 27.0909C35.9773 27.0909 37 28.1137 37 29.3637C37 30.6137 35.9773 31.6364 34.7273 31.6364C33.4773 31.6364 32.4546 30.6137 32.4546 29.3637C32.4546 29.1591 32.4773 28.9659 32.5341 28.7841L27.3636 23.6023C27.1818 23.6591 26.9773 23.6818 26.7727 23.6818C26.5682 23.6818 26.3636 23.6591 26.1818 23.6023L23.2841 26.5C23.3409 26.6819 23.3636 26.8864 23.3636 27.0909C23.3636 28.3409 22.3409 29.3637 21.0909 29.3637C19.8409 29.3637 18.8182 28.3409 18.8182 27.0909C18.8182 26.8864 18.8409 26.6819 18.8978 26.5L14.8523 22.4659C14.6705 22.5228 14.4773 22.5455 14.2727 22.5455C13.0227 22.5455 12 21.5228 12 20.2728C11.9999 19.0227 13.0226 18 14.2727 18Z" fill="#FF4444"/>
<defs>
<filter id="filter0_d" x="0" y="0" width="49" height="49" filterUnits="userSpaceOnUse" color-interpolation-filters="sRGB">
<feFlood flood-opacity="0" result="BackgroundImageFix"/>
<feColorMatrix in="SourceAlpha" type="matrix" values="0 0 0 0 0 0 0 0 0 0 0 0 0 0 0 0 0 0 127 0"/>
<feOffset dy="1"/>
<feGaussianBlur stdDeviation="2"/>
<feColorMatrix type="matrix" values="0 0 0 0 0 0 0 0 0 0 0 0 0 0 0 0 0 0 0.25 0"/>
<feBlend mode="normal" in2="BackgroundImageFix" result="effect1_dropShadow"/>
<feBlend mode="normal" in="SourceGraphic" in2="effect1_dropShadow" result="shape"/>
</filter>
</defs>
</svg>
