<svg width="49" height="49" viewBox="0 0 49 49" fill="none" xmlns="http://www.w3.org/2000/svg">
<g filter="url(#filter0_d)">
<rect x="4" y="3" width="41" height="41" rx="3" fill="white"/>
</g>
<path d="M19.9941 25.875C17.7595 22.3684 18.0404 22.8059 17.976 22.7145C17.1624 21.5669 16.7324 20.2163 16.7324 18.8086C16.7324 15.0754 19.7619 12 23.5 12C27.2259 12 30.2676 15.0693 30.2676 18.8086C30.2676 20.2154 29.8285 21.6014 28.9883 22.7644L27.0059 25.875C29.1254 26.2007 32.7285 27.1714 32.7285 29.3086C32.7285 30.0877 32.22 31.198 29.7975 32.0632C28.1059 32.6673 25.8694 33 23.5 33C19.0693 33 14.2715 31.7502 14.2715 29.3086C14.2715 27.171 17.8704 26.2014 19.9941 25.875ZM27.9605 22.0876C27.9673 22.077 27.9743 22.0667 27.9817 22.0565C28.6809 21.0946 29.0371 19.9546 29.0371 18.8086C29.0371 15.7317 26.5595 13.2305 23.5 13.2305C20.4468 13.2305 17.9629 15.7328 17.9629 18.8086C17.9629 19.9565 18.3124 21.0578 18.9738 21.9943C19.033 22.0725 18.7238 21.5921 23.5 29.0867L27.9605 22.0876ZM23.5 31.7695C28.3396 31.7695 31.498 30.347 31.498 29.3086C31.498 28.6107 29.8751 27.4631 26.2789 27.0158L24.0188 30.5621C23.9059 30.7394 23.7102 30.8467 23.5 30.8467C23.2898 30.8467 23.0941 30.7393 22.9812 30.5621L20.7212 27.0158C17.1249 27.4631 15.502 28.6107 15.502 29.3086C15.502 30.3382 18.632 31.7695 23.5 31.7695Z" fill="#FF4444"/>
<path d="M23.5 15.7324C25.1962 15.7324 26.5762 17.1124 26.5762 18.8086C26.5762 20.5048 25.1962 21.8848 23.5 21.8848C21.8038 21.8848 20.4238 20.5048 20.4238 18.8086C20.4238 17.1124 21.8038 15.7324 23.5 15.7324ZM23.5 20.6543C24.5177 20.6543 25.3457 19.8263 25.3457 18.8086C25.3457 17.7909 24.5177 16.9629 23.5 16.9629C22.4823 16.9629 21.6543 17.7909 21.6543 18.8086C21.6543 19.8263 22.4823 20.6543 23.5 20.6543Z" fill="#FF4444"/>
<defs>
<filter id="filter0_d" x="0" y="0" width="49" height="49" filterUnits="userSpaceOnUse" color-interpolation-filters="sRGB">
<feFlood flood-opacity="0" result="BackgroundImageFix"/>
<feColorMatrix in="SourceAlpha" type="matrix" values="0 0 0 0 0 0 0 0 0 0 0 0 0 0 0 0 0 0 127 0"/>
<feOffset dy="1"/>
<feGaussianBlur stdDeviation="2"/>
<feColorMatrix type="matrix" values="0 0 0 0 0 0 0 0 0 0 0 0 0 0 0 0 0 0 0.25 0"/>
<feBlend mode="normal" in2="BackgroundImageFix" result="effect1_dropShadow"/>
<feBlend mode="normal" in="SourceGraphic" in2="effect1_dropShadow" result="shape"/>
</filter>
</defs>
</svg>
