<svg width="13" height="13" viewBox="0 0 13 13" fill="none" xmlns="http://www.w3.org/2000/svg">
<path d="M13 6.50001L11.5284 4.86608L11.7588 2.67865L9.60684 2.22309L8.50913 0.316162L6.50005 1.21408L6.22888 6.50001L6.50005 11.7859L8.50915 12.6838L9.60684 10.7769L11.7588 10.3213L11.5284 8.13391L13 6.50001Z" fill="#0ED678"/>
<path d="M4.49089 0.316162L3.39321 2.22309L1.24124 2.67867L1.47166 4.86608L0 6.50001L1.47166 8.13391L1.24124 10.3213L3.39321 10.7769L4.49091 12.6838L6.50001 11.7859V1.21408L4.49089 0.316162Z" fill="#04EB84"/>
<path d="M9.225 5.07676L8.65604 4.56891L6.50005 6.98437L6.22888 7.58465L6.50005 8.12967L9.225 5.07676Z" fill="#F7F0EB"/>
<path d="M4.23419 5.92566L3.69495 6.46493L5.96218 8.73218L6.49997 8.12967V6.98437L5.93071 7.62215L4.23419 5.92566Z" fill="#FFFBF5"/>
</svg>
