<svg width="25" height="25" viewBox="0 0 25 25" fill="none" xmlns="http://www.w3.org/2000/svg">
<path d="M12.5 0C5.62988 0 0 5.62988 0 12.5C0 19.3701 5.62988 25 12.5 25C19.3701 25 25 19.3701 25 12.5C25 5.62988 19.3701 0 12.5 0Z" fill="#32D736"/>
<path d="M25 12.5C25 19.3701 19.3701 25 12.5 25V0C19.3701 0 25 5.62988 25 12.5Z" fill="#0CA656"/>
<path d="M21.2891 12.5C21.2891 17.3486 17.3486 21.2891 12.5 21.2891C7.65137 21.2891 3.71094 17.3486 3.71094 12.5C3.71094 10.5811 4.32612 8.76465 5.46875 7.22661C5.74707 6.8604 6.17183 6.64062 6.64063 6.64062C6.96284 6.64062 7.27051 6.74316 7.51948 6.93359C8.16401 7.41704 8.2959 8.33979 7.81245 8.98433C7.05083 10.0098 6.64063 11.2256 6.64063 12.5C6.64063 15.7374 9.26265 18.3594 12.5 18.3594C15.7374 18.3594 18.3594 15.7374 18.3594 12.5C18.3594 11.2256 17.9492 10.0098 17.1875 8.98433C16.7041 8.33979 16.8359 7.43159 17.4805 6.93359C17.7294 6.74316 18.0371 6.64062 18.3593 6.64062C18.8281 6.64062 19.2529 6.8604 19.5312 7.22661C20.6739 8.76465 21.2891 10.5811 21.2891 12.5Z" fill="#CAE8F9"/>
<path d="M13.9648 5.17578V12.5C13.9648 13.3057 13.3057 13.9648 12.5 13.9648C11.6943 13.9648 11.0352 13.3057 11.0352 12.5V5.17578C11.0352 4.37012 11.6943 3.71094 12.5 3.71094C13.3057 3.71094 13.9648 4.37012 13.9648 5.17578Z" fill="#CAE8F9"/>
<path d="M12.5 13.9648V3.71094C13.3057 3.71094 13.9648 4.37012 13.9648 5.17578V12.5C13.9648 13.3057 13.3057 13.9648 12.5 13.9648Z" fill="#B7E0F6"/>
<path d="M21.2891 12.5C21.2891 17.3486 17.3486 21.2891 12.5 21.2891V18.3594C15.7374 18.3594 18.3594 15.7374 18.3594 12.5C18.3594 11.2256 17.9492 10.0098 17.1875 8.98433C16.7041 8.33979 16.8359 7.43159 17.4805 6.93359C17.7294 6.74316 18.0371 6.64062 18.3593 6.64062C18.8281 6.64062 19.2529 6.8604 19.5312 7.22661C20.6739 8.76465 21.2891 10.5811 21.2891 12.5Z" fill="#B7E0F6"/>
</svg>
