<svg width="10" height="10" viewBox="0 0 10 10" fill="none" xmlns="http://www.w3.org/2000/svg">
<path d="M3.08594 10H6.91406C7.40945 10 7.8125 9.59695 7.8125 9.10156V2.14844C7.8125 1.65305 7.40945 1.25 6.91406 1.25H3.08594C2.59055 1.25 2.1875 1.65305 2.1875 2.14844V9.10156C2.1875 9.59695 2.59055 10 3.08594 10ZM6.91406 1.875C7.06484 1.875 7.1875 1.99766 7.1875 2.14844V9.10156C7.1875 9.25234 7.06484 9.375 6.91406 9.375H3.08594C2.93516 9.375 2.8125 9.25234 2.8125 9.10156V2.14844C2.8125 1.99766 2.93516 1.875 3.08594 1.875H6.91406Z" fill="white"/>
<path d="M3.75 1.875H6.25C6.4226 1.875 6.5625 1.73508 6.5625 1.5625V0.703125C6.5625 0.31541 6.24709 0 5.85938 0H4.14062C3.75291 0 3.4375 0.31541 3.4375 0.703125V1.5625C3.4375 1.73508 3.5774 1.875 3.75 1.875ZM5.9375 1.25H4.0625V0.703125C4.0625 0.660039 4.09754 0.625 4.14062 0.625H5.85938C5.90246 0.625 5.9375 0.660039 5.9375 0.703125V1.25Z" fill="white"/>
<path d="M3.75 8.625H6.25C6.4226 8.625 6.5625 8.48508 6.5625 8.3125C6.5625 8.13992 6.4226 8 6.25 8H3.75C3.5774 8 3.4375 8.13992 3.4375 8.3125C3.4375 8.48508 3.5774 8.625 3.75 8.625Z" fill="white"/>
<path d="M3.75 6.625H6.25C6.4226 6.625 6.5625 6.48508 6.5625 6.3125C6.5625 6.13992 6.4226 6 6.25 6H3.75C3.5774 6 3.4375 6.13992 3.4375 6.3125C3.4375 6.48508 3.5774 6.625 3.75 6.625Z" fill="white"/>
<path d="M3.75 4.625H6.25C6.4226 4.625 6.5625 4.48508 6.5625 4.3125C6.5625 4.13992 6.4226 4 6.25 4H3.75C3.5774 4 3.4375 4.13992 3.4375 4.3125C3.4375 4.48508 3.5774 4.625 3.75 4.625Z" fill="white"/>
</svg>
