<svg width="9" height="9" viewBox="0 0 9 9" fill="none" xmlns="http://www.w3.org/2000/svg">
<path d="M8.36119 7.01544L5.18022 1.17245C5.03787 0.929889 4.77947 0.787506 4.49996 0.787506C4.22046 0.787506 3.96206 0.929906 3.81971 1.17245L0.638736 7.01544C0.491098 7.26331 0.491098 7.56386 0.633498 7.81173C0.775863 8.06483 1.03424 8.21251 1.31905 8.21251H7.68092C7.9657 8.21251 8.2241 8.06483 8.36647 7.81173C8.50883 7.56386 8.50883 7.26331 8.36119 7.01544Z" fill="white"/>
<path d="M4.5 7.68515C4.20929 7.68515 3.97266 7.44851 3.97266 7.15781C3.97266 6.8671 4.20929 6.63046 4.5 6.63046C4.79071 6.63046 5.02734 6.8671 5.02734 7.15781C5.02734 7.44851 4.79071 7.68515 4.5 7.68515Z" fill="#FFA800"/>
<path d="M5.02734 5.57578C5.02734 5.86648 4.79071 6.10312 4.5 6.10312C4.20929 6.10312 3.97266 5.86648 3.97266 5.57578V2.93906C3.97266 2.64835 4.20929 2.41171 4.5 2.41171C4.79071 2.41171 5.02734 2.64835 5.02734 2.93906V5.57578Z" fill="#FFA800"/>
<path d="M5.02734 7.15781C5.02734 6.8671 4.79071 6.63046 4.5 6.63046V7.68515C4.79071 7.68515 5.02734 7.44851 5.02734 7.15781Z" fill="#FFA800"/>
<path d="M5.02734 5.57578V2.93906C5.02734 2.64835 4.79071 2.41171 4.5 2.41171V6.10312C4.79071 6.10312 5.02734 5.86648 5.02734 5.57578Z" fill="#FFA800"/>
</svg>
