<svg width="16" height="16" viewBox="0 0 16 16" fill="none" xmlns="http://www.w3.org/2000/svg">
<rect width="16" height="16" rx="2" fill="#9A81FF"/>
<path d="M3.90908 5.27271C4.40908 5.27271 4.81816 5.68179 4.81816 6.18179C4.81816 6.2636 4.80908 6.34087 4.78635 6.4136L6.39998 8.03179C6.47271 8.00905 6.55453 7.99997 6.63635 7.99997C6.71816 7.99997 6.79998 8.00905 6.87271 8.03179L8.0318 6.87271C8.00906 6.79997 7.99998 6.71816 7.99998 6.63634C7.99998 6.13634 8.40906 5.72726 8.90906 5.72726C9.40906 5.72726 9.81814 6.13634 9.81814 6.63634C9.81814 6.71816 9.80906 6.79997 9.78633 6.87271L11.8591 8.94089C11.9318 8.91816 12.0091 8.90907 12.0909 8.90907C12.5909 8.90905 13 9.31816 13 9.81816C13 10.3182 12.5909 10.7272 12.0909 10.7272C11.5909 10.7272 11.1818 10.3182 11.1818 9.81816C11.1818 9.73634 11.1909 9.65906 11.2137 9.58634L9.14547 7.51361C9.07273 7.53634 8.99092 7.54542 8.9091 7.54542C8.82729 7.54542 8.74547 7.53634 8.67273 7.51361L7.51365 8.67271C7.53639 8.74544 7.54547 8.82726 7.54547 8.90907C7.54547 9.40907 7.13639 9.81816 6.63639 9.81816C6.13639 9.81816 5.7273 9.40907 5.7273 8.90907C5.7273 8.82726 5.73639 8.74544 5.75912 8.67271L4.14094 7.05907C4.0682 7.08181 3.99094 7.09089 3.90912 7.09089C3.40912 7.09089 3.00004 6.68181 3.00004 6.18181C3 5.68179 3.40908 5.27271 3.90908 5.27271Z" fill="white"/>
</svg>
