<svg width="11" height="11" viewBox="0 0 11 11" fill="none" xmlns="http://www.w3.org/2000/svg">
<path d="M5.49996 5.95834C5.75309 5.95834 5.95829 5.75314 5.95829 5.50001C5.95829 5.24687 5.75309 5.04167 5.49996 5.04167C5.24683 5.04167 5.04163 5.24687 5.04163 5.50001C5.04163 5.75314 5.24683 5.95834 5.49996 5.95834Z" fill="#778694"/>
<path d="M7.33333 5.95834C7.58646 5.95834 7.79167 5.75314 7.79167 5.50001C7.79167 5.24687 7.58646 5.04167 7.33333 5.04167C7.0802 5.04167 6.875 5.24687 6.875 5.50001C6.875 5.75314 7.0802 5.95834 7.33333 5.95834Z" fill="#778694"/>
<path d="M3.66671 5.95834C3.91984 5.95834 4.12504 5.75314 4.12504 5.50001C4.12504 5.24687 3.91984 5.04167 3.66671 5.04167C3.41358 5.04167 3.20837 5.24687 3.20837 5.50001C3.20837 5.75314 3.41358 5.95834 3.66671 5.95834Z" fill="#778694"/>
<path d="M8.74041 2.25958C7.98838 1.50265 6.99583 1.03181 5.93386 0.928236C4.8719 0.824666 3.80707 1.09486 2.92296 1.69223C2.03885 2.2896 1.39087 3.17671 1.09072 4.20063C0.790569 5.22455 0.857065 6.3211 1.27874 7.30125C1.32269 7.39235 1.33711 7.4949 1.31999 7.59458L0.91666 9.53333C0.901121 9.60766 0.904294 9.68469 0.925894 9.75749C0.947494 9.8303 0.986845 9.89659 1.04041 9.95042C1.08432 9.99401 1.1366 10.0283 1.1941 10.0511C1.25161 10.0739 1.31314 10.0849 1.37499 10.0833H1.46666L3.42833 9.68917C3.52803 9.67718 3.62913 9.6914 3.72166 9.73042C4.70181 10.1521 5.79836 10.2186 6.82228 9.91844C7.8462 9.61829 8.73331 8.97031 9.33068 8.0862C9.92805 7.20209 10.1982 6.13726 10.0947 5.0753C9.9911 4.01333 9.52026 3.02078 8.76333 2.26875L8.74041 2.25958ZM9.12083 6.09125C9.03121 6.63849 8.81865 7.15828 8.49912 7.6115C8.17959 8.06471 7.76143 8.43956 7.2761 8.70781C6.79078 8.97606 6.25092 9.13074 5.69718 9.16021C5.14343 9.18967 4.59021 9.09315 4.07916 8.87792C3.89791 8.80082 3.7032 8.76032 3.50624 8.75875C3.4202 8.75935 3.33436 8.76702 3.24958 8.78167L1.95708 9.04292L2.21833 7.75042C2.27036 7.4705 2.23682 7.1814 2.12208 6.92083C1.90684 6.40978 1.81032 5.85656 1.83979 5.30282C1.86925 4.74907 2.02393 4.20922 2.29218 3.72389C2.56044 3.23856 2.93528 2.8204 3.3885 2.50087C3.84171 2.18135 4.3615 1.96878 4.90874 1.87917C5.48316 1.78489 6.07177 1.82874 6.62588 2.00707C7.17999 2.1854 7.68368 2.4931 8.09529 2.9047C8.5069 3.31631 8.81459 3.82 8.99292 4.37411C9.17126 4.92823 9.2151 5.51683 9.12083 6.09125Z" fill="#778694"/>
</svg>
