<svg width="173" height="48" viewBox="0 0 173 48" fill="none" xmlns="http://www.w3.org/2000/svg">
<rect width="166" height="48" rx="3" fill="#EBEEFF"/>
<path d="M49.392 28V16.72H50.704V21.712H57.472V16.72H58.784V28H57.472V22.848H50.704V28H49.392ZM64.8919 28.144C63.6652 28.144 62.6945 27.7867 61.9799 27.072C61.2652 26.3467 60.9079 25.3653 60.9079 24.128C60.9079 23.328 61.0679 22.624 61.3879 22.016C61.7079 21.3973 62.1452 20.9227 62.6999 20.592C63.2652 20.2507 63.9159 20.08 64.6519 20.08C65.7079 20.08 66.5345 20.4213 67.1319 21.104C67.7292 21.776 68.0279 22.704 68.0279 23.888V24.384H62.1719C62.2145 25.2693 62.4705 25.9467 62.9399 26.416C63.4092 26.8747 64.0599 27.104 64.8919 27.104C65.3612 27.104 65.8092 27.0347 66.2359 26.896C66.6625 26.7467 67.0679 26.5067 67.4519 26.176L67.8999 27.088C67.5479 27.4187 67.0999 27.68 66.5559 27.872C66.0119 28.0533 65.4572 28.144 64.8919 28.144ZM64.6839 21.04C63.9479 21.04 63.3665 21.2693 62.9399 21.728C62.5132 22.1867 62.2625 22.7893 62.1879 23.536H66.9079C66.8759 22.7467 66.6679 22.1333 66.2839 21.696C65.9105 21.2587 65.3772 21.04 64.6839 21.04ZM72.3515 28.144C71.8182 28.144 71.3382 28.0427 70.9115 27.84C70.4955 27.6267 70.1648 27.3387 69.9195 26.976C69.6742 26.6133 69.5515 26.208 69.5515 25.76C69.5515 25.1947 69.6955 24.7467 69.9835 24.416C70.2822 24.0853 70.7675 23.8507 71.4395 23.712C72.1222 23.5627 73.0502 23.488 74.2235 23.488H74.7355V22.992C74.7355 22.3307 74.5968 21.856 74.3195 21.568C74.0528 21.2693 73.6208 21.12 73.0235 21.12C72.5542 21.12 72.1008 21.1893 71.6635 21.328C71.2262 21.456 70.7782 21.6693 70.3195 21.968L69.8715 21.024C70.2768 20.736 70.7675 20.5067 71.3435 20.336C71.9302 20.1653 72.4902 20.08 73.0235 20.08C74.0262 20.08 74.7675 20.3253 75.2475 20.816C75.7382 21.3067 75.9835 22.0693 75.9835 23.104V28H74.7675V26.656C74.5648 27.1147 74.2502 27.4773 73.8235 27.744C73.4075 28.0107 72.9168 28.144 72.3515 28.144ZM72.5595 27.168C73.1995 27.168 73.7222 26.9493 74.1275 26.512C74.5328 26.064 74.7355 25.4987 74.7355 24.816V24.336H74.2395C73.3755 24.336 72.6928 24.3787 72.1915 24.464C71.7008 24.5387 71.3542 24.6773 71.1515 24.88C70.9595 25.072 70.8635 25.3387 70.8635 25.68C70.8635 26.1173 71.0128 26.4747 71.3115 26.752C71.6208 27.0293 72.0368 27.168 72.5595 27.168ZM80.7719 28.144C79.9825 28.144 79.3852 27.9147 78.9799 27.456C78.5852 26.9867 78.3879 26.3093 78.3879 25.424V16.72H79.6839V25.328C79.6839 26.4693 80.1372 27.04 81.0439 27.04C81.3105 27.04 81.5505 27.008 81.7639 26.944L81.7319 28.032C81.4012 28.1067 81.0812 28.144 80.7719 28.144ZM86.1016 28.144C85.1843 28.144 84.4963 27.904 84.0376 27.424C83.579 26.9333 83.3496 26.2293 83.3496 25.312V21.232H81.8296V20.224H83.3496V17.84H84.6456V20.224H87.1096V21.232H84.6456V25.184C84.6456 25.792 84.7736 26.256 85.0296 26.576C85.2856 26.8853 85.7016 27.04 86.2776 27.04C86.4483 27.04 86.619 27.0187 86.7896 26.976C86.9603 26.9333 87.115 26.8907 87.2536 26.848L87.4776 27.84C87.339 27.9147 87.1363 27.984 86.8696 28.048C86.603 28.112 86.347 28.144 86.1016 28.144ZM88.5754 28V16.72H89.8714V21.504C90.1274 21.0347 90.4847 20.6827 90.9434 20.448C91.4127 20.2027 91.9354 20.08 92.5114 20.08C94.3567 20.08 95.2794 21.104 95.2794 23.152V28H93.9834V23.232C93.9834 22.5067 93.8394 21.9787 93.5514 21.648C93.274 21.3067 92.826 21.136 92.2074 21.136C91.4927 21.136 90.922 21.36 90.4954 21.808C90.0794 22.2453 89.8714 22.832 89.8714 23.568V28H88.5754ZM101.779 28V20.224H103.043V21.616C103.459 20.6773 104.312 20.16 105.603 20.064L106.067 20.016L106.163 21.136L105.347 21.232C104.611 21.296 104.051 21.5307 103.667 21.936C103.283 22.3307 103.091 22.8747 103.091 23.568V28H101.779ZM110.923 28.144C109.696 28.144 108.726 27.7867 108.011 27.072C107.296 26.3467 106.939 25.3653 106.939 24.128C106.939 23.328 107.099 22.624 107.419 22.016C107.739 21.3973 108.176 20.9227 108.731 20.592C109.296 20.2507 109.947 20.08 110.683 20.08C111.739 20.08 112.566 20.4213 113.163 21.104C113.76 21.776 114.059 22.704 114.059 23.888V24.384H108.203C108.246 25.2693 108.502 25.9467 108.971 26.416C109.44 26.8747 110.091 27.104 110.923 27.104C111.392 27.104 111.84 27.0347 112.267 26.896C112.694 26.7467 113.099 26.5067 113.483 26.176L113.931 27.088C113.579 27.4187 113.131 27.68 112.587 27.872C112.043 28.0533 111.488 28.144 110.923 28.144ZM110.715 21.04C109.979 21.04 109.398 21.2693 108.971 21.728C108.544 22.1867 108.294 22.7893 108.219 23.536H112.939C112.907 22.7467 112.699 22.1333 112.315 21.696C111.942 21.2587 111.408 21.04 110.715 21.04ZM115.935 30.88V20.224H117.199V21.616C117.433 21.136 117.78 20.7627 118.239 20.496C118.708 20.2187 119.252 20.08 119.871 20.08C120.564 20.08 121.167 20.2453 121.679 20.576C122.201 20.896 122.601 21.36 122.879 21.968C123.167 22.5653 123.311 23.28 123.311 24.112C123.311 24.9333 123.167 25.648 122.879 26.256C122.601 26.8533 122.201 27.3173 121.679 27.648C121.167 27.9787 120.564 28.144 119.871 28.144C119.273 28.144 118.74 28.0107 118.271 27.744C117.801 27.4773 117.455 27.1093 117.231 26.64V30.88H115.935ZM119.599 27.104C120.324 27.104 120.905 26.848 121.343 26.336C121.78 25.8133 121.999 25.072 121.999 24.112C121.999 23.1413 121.78 22.4 121.343 21.888C120.905 21.376 120.324 21.12 119.599 21.12C118.873 21.12 118.292 21.376 117.855 21.888C117.417 22.4 117.199 23.1413 117.199 24.112C117.199 25.072 117.417 25.8133 117.855 26.336C118.292 26.848 118.873 27.104 119.599 27.104ZM124.696 28V26.368H126.328V28H124.696ZM128.336 28V26.368H129.968V28H128.336ZM131.977 28V26.368H133.609V28H131.977ZM135.617 28V26.368H137.249V28H135.617ZM139.258 28V26.368H140.89V28H139.258Z" fill="#373643"/>
<g clip-path="url(#clip0)">
<path d="M35.6336 15.3164C35.6336 13.8962 34.4715 12.7341 33.0513 12.7341H13.6834C12.2631 12.7341 11.1011 13.8962 11.1011 15.3164V39.4177C11.1011 40.8379 12.2631 42 13.6834 42H28.315L35.6315 35.1139L35.6336 15.3164Z" fill="#DADEE0"/>
<path d="M11.1009 15.3165C11.1009 13.8962 12.2629 12.7342 13.6832 12.7342H30.8992V10.5823C30.8992 9.16203 29.7372 8 28.3169 8H8.94898C7.52872 8 6.3667 9.16203 6.3667 10.5823V34.6835C6.3667 36.1038 7.52872 37.2658 8.94898 37.2658H11.1009V15.3165Z" fill="#1BB7EA"/>
<path d="M30.8972 35.1139H35.6314L28.3149 42V37.6962C28.3149 36.2759 29.477 35.1139 30.8972 35.1139Z" fill="#F2F2F2"/>
<path d="M17.5567 24.1393H29.177C29.5338 24.1393 29.8225 23.85 29.8225 23.4937C29.8225 23.137 29.5337 22.8481 29.177 22.8481H17.5567C17.2 22.8481 16.9111 23.137 16.9111 23.4937C16.9111 23.85 17.1999 24.1393 17.5567 24.1393Z" fill="#1F4254"/>
<path d="M17.5567 19.8355H29.177C29.5338 19.8355 29.8225 19.5462 29.8225 19.1899C29.8225 18.8331 29.5337 18.5443 29.177 18.5443H17.5567C17.2 18.5443 16.9111 18.8331 16.9111 19.1899C16.9111 19.5462 17.1999 19.8355 17.5567 19.8355Z" fill="#1F4254"/>
<path d="M17.5567 28.443H29.177C29.5338 28.443 29.8225 28.1537 29.8225 27.7974C29.8225 27.4407 29.5337 27.1519 29.177 27.1519H17.5567C17.2 27.1519 16.9111 27.4407 16.9111 27.7974C16.9111 28.1537 17.1999 28.443 17.5567 28.443Z" fill="#1F4254"/>
<path d="M17.5567 32.7468H24.0124C24.3691 32.7468 24.658 32.4576 24.658 32.1013C24.658 31.7444 24.3691 31.4557 24.0124 31.4557H17.5567C17.2 31.4557 16.9111 31.7444 16.9111 32.1013C16.9111 32.4576 17.1999 32.7468 17.5567 32.7468Z" fill="#1F4254"/>
</g>
<defs>
<clipPath id="clip0">
<rect width="34" height="34" fill="white" transform="translate(4 8)"/>
</clipPath>
</defs>
</svg>
