<svg width="12" height="16" viewBox="0 0 12 16" fill="none" xmlns="http://www.w3.org/2000/svg">
<path d="M11.805 5.2475L7.725 0.747498C7.65488 0.669803 7.56927 0.607645 7.47369 0.565019C7.3781 0.522394 7.27466 0.500245 7.17 0.499998H1.92C1.67081 0.497025 1.42348 0.543168 1.19213 0.63579C0.960771 0.728412 0.749928 0.8657 0.571636 1.03981C0.393344 1.21393 0.251096 1.42145 0.153014 1.65055C0.0549316 1.87964 0.00293728 2.12581 0 2.375V13.625C0.00293728 13.8742 0.0549316 14.1204 0.153014 14.3494C0.251096 14.5785 0.393344 14.7861 0.571636 14.9602C0.749928 15.1343 0.960771 15.2716 1.19213 15.3642C1.42348 15.4568 1.67081 15.503 1.92 15.5H10.08C10.3292 15.503 10.5765 15.4568 10.8079 15.3642C11.0392 15.2716 11.2501 15.1343 11.4284 14.9602C11.6067 14.7861 11.7489 14.5785 11.847 14.3494C11.9451 14.1204 11.9971 13.8742 12 13.625V5.75C11.9995 5.56412 11.93 5.38505 11.805 5.2475ZM10.2375 5.75H7.2825C7.12788 5.73477 6.98543 5.65942 6.88583 5.54018C6.78623 5.42094 6.73745 5.26735 6.75 5.1125V2H6.8325L10.2375 5.75ZM10.08 14H1.92C1.86778 14.003 1.81547 13.9957 1.76608 13.9785C1.71669 13.9613 1.67118 13.9345 1.63216 13.8997C1.59314 13.8648 1.56138 13.8226 1.5387 13.7755C1.51602 13.7284 1.50287 13.6772 1.5 13.625V2.375C1.50287 2.32277 1.51602 2.27162 1.5387 2.22448C1.56138 2.17735 1.59314 2.13515 1.63216 2.10032C1.67118 2.06548 1.71669 2.03868 1.76608 2.02147C1.81547 2.00425 1.86778 1.99696 1.92 2H5.25V5.1125C5.23789 5.66496 5.44481 6.19979 5.8256 6.60025C6.20639 7.00071 6.73012 7.23429 7.2825 7.25H10.5V13.625C10.4971 13.6772 10.484 13.7284 10.4613 13.7755C10.4386 13.8226 10.4069 13.8648 10.3678 13.8997C10.3288 13.9345 10.2833 13.9613 10.2339 13.9785C10.1845 13.9957 10.1322 14.003 10.08 14Z" fill="#778694"/>
</svg>
