<svg width="20" height="21" viewBox="0 0 20 21" fill="none" xmlns="http://www.w3.org/2000/svg">
<path d="M13.4097 15.741C11.7399 17.0388 9.63851 17.651 7.53338 17.4531C5.42824 17.2551 3.47766 16.2618 2.07881 14.6755C0.679961 13.0891 -0.0619809 11.029 0.00405863 8.9145C0.0700982 6.80004 0.939153 4.79025 2.43427 3.29437C3.92939 1.79849 5.93814 0.92899 8.05152 0.862917C10.1649 0.796844 12.224 1.53916 13.8096 2.93873C15.3951 4.3383 16.3879 6.28988 16.5857 8.39609C16.7836 10.5023 16.1717 12.6048 14.8745 14.2754L19.6936 19.079C20.1016 19.4856 20.1022 20.1461 19.695 20.5535C19.2878 20.9609 18.6273 20.9606 18.2204 20.5528L13.4201 15.741H13.4097ZM8.31916 15.4084C9.13773 15.4084 9.94829 15.2471 10.7045 14.9337C11.4608 14.6203 12.148 14.1609 12.7268 13.5818C13.3056 13.0026 13.7647 12.3151 14.078 11.5585C14.3913 10.8018 14.5525 9.99087 14.5525 9.17188C14.5525 8.35289 14.3913 7.54192 14.078 6.78527C13.7647 6.02862 13.3056 5.34111 12.7268 4.76199C12.148 4.18288 11.4608 3.7235 10.7045 3.41009C9.94829 3.09667 9.13773 2.93536 8.31916 2.93536C6.66598 2.93536 5.08051 3.59242 3.91153 4.76199C2.74256 5.93157 2.08583 7.51785 2.08583 9.17188C2.08583 10.8259 2.74256 12.4122 3.91153 13.5818C5.08051 14.7513 6.66598 15.4084 8.31916 15.4084Z" fill="#6F809E"/>
</svg>
