<svg width="6" height="6" viewBox="0 0 6 6" fill="none" xmlns="http://www.w3.org/2000/svg">
<g clip-path="url(#clip0)">
<path d="M3.18827 6H2.81171C2.50716 6 2.25936 5.75222 2.25936 5.44766V5.32027C2.12988 5.2789 2.00408 5.22668 1.88323 5.16414L1.79295 5.25442C1.57429 5.47335 1.22402 5.46693 1.01171 5.25434L0.74557 4.9882C0.532887 4.77575 0.52677 4.42561 0.745641 4.20697L0.835852 4.11676C0.773309 3.99591 0.721102 3.87013 0.679723 3.74063H0.55234C0.247793 3.74063 0 3.49284 0 3.18828V2.81171C0 2.50716 0.247793 2.25938 0.552352 2.25938H0.679734C0.721113 2.12988 0.77332 2.00409 0.835863 1.88324L0.745582 1.79297C0.52684 1.57446 0.532875 1.22428 0.745652 1.01174L1.01182 0.745582C1.22462 0.532488 1.5748 0.527168 1.79304 0.745652L1.88324 0.835852C2.00409 0.77332 2.12989 0.721102 2.25938 0.679723V0.55234C2.25938 0.247781 2.50716 0 2.81173 0H3.18828C3.49284 0 3.74063 0.247781 3.74063 0.55234V0.679734C3.87011 0.721102 3.99591 0.77332 4.11676 0.835863L4.20704 0.745582C4.4257 0.526652 4.77596 0.533074 4.98827 0.745664L5.25442 1.0118C5.4671 1.22425 5.47322 1.57439 5.25435 1.79303L5.16414 1.88324C5.22668 2.00409 5.27889 2.12987 5.32027 2.25938H5.44765C5.75221 2.25938 6 2.50716 6 2.81171V3.18828C6 3.49284 5.75221 3.74063 5.44765 3.74063H5.32027C5.27889 3.87012 5.22668 3.99591 5.16414 4.11676L5.25442 4.20704C5.47316 4.42555 5.46712 4.77573 5.25435 4.98827L4.98818 5.25443C4.77538 5.46752 4.4252 5.47284 4.20696 5.25436L4.11676 5.16416C3.99591 5.22669 3.87011 5.27891 3.74063 5.32029V5.44768C3.74063 5.75222 3.49284 6 3.18827 6ZM1.942 4.79496C2.10989 4.89425 2.29059 4.96927 2.47908 5.01791C2.5567 5.03794 2.61094 5.10795 2.61094 5.18811V5.44766C2.61094 5.55837 2.70102 5.64844 2.81173 5.64844H3.18828C3.29899 5.64844 3.38907 5.55837 3.38907 5.44766V5.18811C3.38907 5.10795 3.44331 5.03794 3.52093 5.01791C3.70942 4.96927 3.89012 4.89425 4.05802 4.79496C4.1271 4.75411 4.21505 4.76522 4.2718 4.82197L4.45564 5.00583C4.53491 5.08519 4.6622 5.08335 4.73952 5.00591L5.00585 4.73959C5.08298 4.66255 5.08556 4.53524 5.00592 4.4557L4.822 4.27178C4.76525 4.21503 4.75414 4.12707 4.79498 4.058C4.89428 3.89012 4.96928 3.70942 5.01792 3.52092C5.03796 3.4433 5.10797 3.38907 5.18813 3.38907H5.44766C5.55837 3.38907 5.64845 3.299 5.64845 3.1883V2.81173C5.64845 2.70102 5.55837 2.61095 5.44766 2.61095H5.18813C5.10796 2.61095 5.03796 2.55671 5.01792 2.4791C4.96928 2.29061 4.89427 2.1099 4.79498 1.94202C4.75414 1.87295 4.76525 1.78499 4.822 1.72825L5.00585 1.54439C5.08533 1.46501 5.08325 1.33774 5.00592 1.2605L4.73961 0.994195C4.66242 0.916898 4.53511 0.914637 4.45573 0.994125L4.27181 1.17805C4.21507 1.2348 4.12709 1.24591 4.05803 1.20506C3.89013 1.10577 3.70943 1.03076 3.52095 0.982113C3.44332 0.962086 3.38909 0.892078 3.38909 0.81191V0.55234C3.38909 0.441633 3.299 0.351562 3.1883 0.351562H2.81174C2.70103 0.351562 2.61095 0.441633 2.61095 0.55234V0.811887C2.61095 0.892055 2.55671 0.962062 2.47909 0.98209C2.29061 1.03073 2.1099 1.10575 1.94201 1.20504C1.87291 1.24588 1.78496 1.23477 1.72822 1.17803L1.54438 0.994172C1.46511 0.914813 1.33781 0.916652 1.2605 0.99409L0.994172 1.26041C0.917039 1.33745 0.914461 1.46475 0.994102 1.5443L1.17803 1.72822C1.23477 1.78496 1.24588 1.87293 1.20504 1.942C1.10575 2.10988 1.03075 2.29058 0.982102 2.47908C0.962062 2.5567 0.892055 2.61093 0.811898 2.61093H0.552352C0.441645 2.61094 0.351562 2.70101 0.351562 2.81171V3.18828C0.351562 3.29899 0.441645 3.38906 0.552352 3.38906H0.811887C0.892055 3.38906 0.962051 3.4433 0.98209 3.52091C1.03073 3.70941 1.10575 3.89011 1.20503 4.05799C1.24587 4.12706 1.23476 4.21502 1.17802 4.27177L0.99416 4.45562C0.914684 4.535 0.916758 4.66227 0.99409 4.73951L1.2604 5.00582C1.33759 5.08311 1.4649 5.08538 1.54429 5.00589L1.7282 4.82196C1.77001 4.78016 1.857 4.74469 1.942 4.79496Z" fill="#FF0000"/>
<path d="M3.00005 4.30549C2.2802 4.30549 1.69458 3.71985 1.69458 3.00002C1.69458 2.28018 2.2802 1.69455 3.00005 1.69455C3.7199 1.69455 4.30552 2.28018 4.30552 3.00002C4.30552 3.71985 3.7199 4.30549 3.00005 4.30549ZM3.00005 2.04611C2.47405 2.04611 2.04614 2.47403 2.04614 3.00002C2.04614 3.526 2.47406 3.95392 3.00005 3.95392C3.52603 3.95392 3.95395 3.526 3.95395 3.00002C3.95395 2.47403 3.52604 2.04611 3.00005 2.04611Z" fill="#FF0000"/>
</g>
<defs>
<clipPath id="clip0">
<rect width="6" height="6" fill="white"/>
</clipPath>
</defs>
</svg>
