<svg width="6" height="6" viewBox="0 0 6 6" fill="none" xmlns="http://www.w3.org/2000/svg">
<g clip-path="url(#clip0)">
<path d="M6.454 4.27823L3.704 2.02823C3.6665 1.99772 3.615 1.99123 3.5715 2.01223C3.52775 2.03273 3.5 2.07673 3.5 2.12498V5.87498C3.5 5.92997 3.53625 5.97872 3.58875 5.99473C3.60075 5.99823 3.61299 5.99998 3.62499 5.99998C3.666 5.99998 3.70524 5.97973 3.729 5.94424L4.692 4.49998H6.375C6.42774 4.49998 6.47475 4.46674 6.49275 4.41698C6.5105 4.36723 6.495 4.31173 6.454 4.27823Z" fill="#FFA800"/>
<path d="M3.625 0C3.556 0 3.5 0.0560039 3.5 0.125004V1.125C3.5 1.194 3.556 1.25 3.625 1.25C3.694 1.25 3.75001 1.194 3.75001 1.125V0.125004C3.75001 0.0560039 3.694 0 3.625 0Z" fill="#FFA800"/>
<path d="M2.625 2H1.625C1.556 2 1.5 2.056 1.5 2.125C1.5 2.194 1.556 2.25 1.625 2.25H2.625C2.694 2.25 2.75 2.19399 2.75 2.12499C2.75 2.05599 2.694 2 2.625 2Z" fill="#FFA800"/>
<path d="M5.625 2H4.625C4.556 2 4.5 2.056 4.5 2.125C4.5 2.194 4.556 2.25 4.625 2.25H5.625C5.694 2.25 5.75 2.19399 5.75 2.12499C5.75 2.05599 5.694 2 5.625 2Z" fill="#FFA800"/>
<path d="M3.00625 1.3295L2.29901 0.6225C2.25026 0.57375 2.17101 0.57375 2.12226 0.6225C2.07351 0.67125 2.07351 0.750504 2.12226 0.799254L2.82951 1.50626C2.85401 1.5305 2.886 1.54276 2.91801 1.54276C2.95001 1.54276 2.982 1.53076 3.00626 1.50626C3.055 1.4575 3.055 1.37825 3.00625 1.3295Z" fill="#FFA800"/>
<path d="M3.00626 2.74402C2.95751 2.69527 2.87826 2.69527 2.82951 2.74402L2.12226 3.45103C2.07351 3.49978 2.07351 3.57903 2.12226 3.62778C2.14676 3.65203 2.17875 3.66428 2.21076 3.66428C2.24276 3.66428 2.27475 3.65204 2.29901 3.62753L3.00626 2.92079C3.05501 2.87201 3.05501 2.79277 3.00626 2.74402Z" fill="#FFA800"/>
<path d="M5.12748 0.6225C5.07873 0.57375 4.99947 0.57375 4.95072 0.6225L4.24347 1.3295C4.19472 1.37825 4.19472 1.45751 4.24347 1.50626C4.26798 1.5305 4.29997 1.54276 4.33197 1.54276C4.36398 1.54276 4.39597 1.53076 4.42023 1.50626L5.12748 0.799254C5.17623 0.750504 5.17623 0.67125 5.12748 0.6225Z" fill="#FFA800"/>
</g>
<defs>
<clipPath id="clip0">
<rect width="6" height="6" fill="white"/>
</clipPath>
</defs>
</svg>
