<svg width="25" height="25" viewBox="0 0 25 25" fill="none" xmlns="http://www.w3.org/2000/svg">
<circle cx="12.5" cy="12.5" r="12.5" fill="#FF900D"/>
<g clip-path="url(#clip0)">
<path d="M12.4951 3.125C11.4884 3.125 10.6722 3.94114 10.6722 4.94791C10.674 5.03537 10.682 5.12263 10.6963 5.20894C10.7226 5.38957 10.8784 5.52291 11.0609 5.52103C11.0957 5.521 11.1303 5.51607 11.1637 5.50644C12.0349 5.24869 12.962 5.24869 13.8332 5.50644C13.9368 5.53207 14.0464 5.51218 14.1343 5.45175C14.2242 5.39029 14.2842 5.29404 14.2999 5.18634C14.313 5.10725 14.3203 5.02734 14.3217 4.94719C14.3213 3.94042 13.5048 3.12459 12.4981 3.125C12.4971 3.125 12.4961 3.125 12.4951 3.125Z" fill="#F0E4D8"/>
<path d="M14.6826 17.7083H10.3076C10.1062 17.7083 9.94299 17.8716 9.94299 18.0729C9.94299 19.4824 11.0856 20.625 12.4951 20.625C13.9046 20.625 15.0472 19.4824 15.0472 18.0729C15.0472 17.8716 14.884 17.7083 14.6826 17.7083Z" fill="#EFE5D5"/>
<path d="M19.2917 16.4024C19.1765 16.1479 19.0314 15.8636 18.871 15.55C17.8843 13.8787 17.3225 11.9909 17.2347 10.0521C17.2347 7.16242 15.7035 5.04201 13.3351 4.65045C11.9531 4.42832 10.5444 4.83898 9.49825 5.76898C8.34021 6.77988 7.69774 8.25764 7.74825 9.79398C7.71807 11.8251 7.15701 13.813 6.12075 15.5602C5.96397 15.8694 5.82107 16.1509 5.70732 16.4017C5.37871 17.1264 5.6998 17.9803 6.42454 18.309C6.61356 18.3947 6.81884 18.4385 7.02638 18.4375H17.9755C18.7713 18.4399 19.4183 17.7968 19.4206 17.001C19.4213 16.7946 19.3775 16.5905 19.2924 16.4024H19.2917V16.4024Z" fill="white"/>
<path d="M7.63385 16.9792C7.4325 16.9792 7.26925 16.8159 7.26929 16.6146C7.26929 16.5579 7.28251 16.5019 7.30791 16.4512L7.42532 16.2208C8.51435 14.3407 9.12832 12.2232 9.21397 10.0521C9.21397 8.20219 10.0737 6.04169 12.4952 6.04169C12.6966 6.04169 12.8598 6.20493 12.8598 6.40628C12.8598 6.60763 12.6966 6.77088 12.4952 6.77088C10.1269 6.77088 9.94313 9.28213 9.94313 10.0521C9.86175 12.3393 9.22002 14.5715 8.07429 16.5527L7.96054 16.778C7.8986 16.9015 7.7721 16.9794 7.63385 16.9792Z" fill="#F3E9C9"/>
</g>
<defs>
<clipPath id="clip0">
<rect width="17.5" height="17.5" fill="white" transform="translate(3.74963 3.125)"/>
</clipPath>
</defs>
</svg>
