<svg width="8" height="7" viewBox="0 0 8 7" fill="none" xmlns="http://www.w3.org/2000/svg">
<path d="M1.32925 4.84621C1.12143 4.66437 0.805553 4.68543 0.623712 4.89325C0.441871 5.10107 0.462929 5.41695 0.670748 5.59879L1.32925 4.84621ZM7.81391 1.3254C7.99362 1.11573 7.96934 0.800083 7.75968 0.620372C7.55002 0.440661 7.23437 0.464941 7.05466 0.674604L7.81391 1.3254ZM1.84828 5.96474L1.51902 6.34103L1.84828 5.96474ZM3.26604 5.86296L2.88641 5.53756L3.26604 5.86296ZM0.670748 5.59879L1.51902 6.34103L2.17753 5.58845L1.32925 4.84621L0.670748 5.59879ZM3.64567 6.18835L7.81391 1.3254L7.05466 0.674604L2.88641 5.53756L3.64567 6.18835ZM1.51902 6.34103C2.14698 6.89049 3.10264 6.82188 3.64567 6.18835L2.88641 5.53756C2.7054 5.74874 2.38685 5.77161 2.17753 5.58845L1.51902 6.34103Z" fill="#0CA656"/>
</svg>
