<svg width="13" height="13" viewBox="0 0 13 13" fill="none" xmlns="http://www.w3.org/2000/svg">
<rect width="13" height="13" rx="1" fill="#FFA800"/>
<path d="M9.43217 8.23594L6.60464 3.04218C6.47811 2.82657 6.24842 2.7 5.99997 2.7C5.75152 2.7 5.52183 2.82658 5.3953 3.04218L2.56777 8.23594C2.43653 8.45627 2.43653 8.72343 2.56311 8.94375C2.68966 9.16874 2.91933 9.3 3.17248 9.3H8.82749C9.08063 9.3 9.31031 9.16874 9.43686 8.94375C9.56341 8.72343 9.56341 8.45627 9.43217 8.23594Z" fill="white"/>
<path d="M6 8.83125C5.74159 8.83125 5.53125 8.62091 5.53125 8.3625C5.53125 8.1041 5.74159 7.89375 6 7.89375C6.25841 7.89375 6.46875 8.1041 6.46875 8.3625C6.46875 8.62091 6.25841 8.83125 6 8.83125Z" fill="#FFA800"/>
<path d="M6.46875 6.95625C6.46875 7.21466 6.25841 7.425 6 7.425C5.74159 7.425 5.53125 7.21466 5.53125 6.95625V4.6125C5.53125 4.3541 5.74159 4.14375 6 4.14375C6.25841 4.14375 6.46875 4.3541 6.46875 4.6125V6.95625Z" fill="#FFA800"/>
<path d="M6.46875 8.3625C6.46875 8.1041 6.25841 7.89375 6 7.89375V8.83125C6.25841 8.83125 6.46875 8.62091 6.46875 8.3625Z" fill="#FFA800"/>
<path d="M6.46875 6.95625V4.6125C6.46875 4.3541 6.25841 4.14375 6 4.14375V7.425C6.25841 7.425 6.46875 7.21466 6.46875 6.95625Z" fill="#FFA800"/>
</svg>
